<?xml version="1.0" standalone="no"?>
<!DOCTYPE svg PUBLIC "-//W3C//DTD SVG 1.1//EN" "http://www.w3.org/Graphics/SVG/1.1/DTD/svg11.dtd" >
<!--
2013-9-30: Created.
-->
<svg>
<metadata>
Created by iconfont
</metadata>
<defs>

<font id="iconfont" horiz-adv-x="1024" >
  <font-face
    font-family="iconfont"
    font-weight="500"
    font-stretch="normal"
    units-per-em="1024"
    ascent="896"
    descent="-128"
  />
    <missing-glyph />
    
    <glyph glyph-name="x" unicode="x" horiz-adv-x="1001"
d="M281 543q-27 -1 -53 -1h-83q-18 0 -36.5 -6t-32.5 -18.5t-23 -32t-9 -45.5v-76h912v41q0 16 -0.5 30t-0.5 18q0 13 -5 29t-17 29.5t-31.5 22.5t-49.5 9h-133v-97h-438v97zM955 310v-52q0 -23 0.5 -52t0.5 -58t-10.5 -47.5t-26 -30t-33 -16t-31.5 -4.5q-14 -1 -29.5 -0.5
t-29.5 0.5h-32l-45 128h-439l-44 -128h-29h-34q-20 0 -45 1q-25 0 -41 9.5t-25.5 23t-13.5 29.5t-4 30v167h911zM163 247q-12 0 -21 -8.5t-9 -21.5t9 -21.5t21 -8.5q13 0 22 8.5t9 21.5t-9 21.5t-22 8.5zM316 123q-8 -26 -14 -48q-5 -19 -10.5 -37t-7.5 -25t-3 -15t1 -14.5
t9.5 -10.5t21.5 -4h37h67h81h80h64h36q23 0 34 12t2 38q-5 13 -9.5 30.5t-9.5 34.5q-5 19 -11 39h-368zM336 498v228q0 11 2.5 23t10 21.5t20.5 15.5t34 6h188q31 0 51.5 -14.5t20.5 -52.5v-227h-327z" />
    

    
    <glyph glyph-name="more" unicode="&#58880;" d="M393.393 411.609c-0.040-1.070-0.064-2.325-0.064-3.586 0-55.528 45.014-100.542 100.542-100.542 55.528 0 100.542 45.014 100.542 100.542 0 1.261-0.023 2.517-0.069 3.767 0.046 0.889 0.069 2.145 0.069 3.406 0 55.528-45.014 100.542-100.542 100.542-55.528 0-100.542-45.014-100.542-100.542 0-1.261 0.023-2.517 0.069-3.767zM84.929 411.609c-0.040-1.070-0.064-2.325-0.064-3.586 0-55.528 45.014-100.542 100.542-100.542 55.528 0 100.542 45.014 100.542 100.542 0 1.261-0.023 2.517-0.069 3.767 0.046 0.889 0.069 2.145 0.069 3.406 0 55.528-45.014 100.542-100.542 100.542-55.528 0-100.542-45.014-100.542-100.542 0-1.261 0.023-2.517 0.069-3.767zM700.924 411.609c-0.040-1.070-0.064-2.325-0.064-3.586 0-55.528 45.014-100.542 100.542-100.542 55.528 0 100.542 45.014 100.542 100.542 0 1.261-0.023 2.517-0.069 3.767 0.046 0.889 0.069 2.145 0.069 3.406 0 55.528-45.014 100.542-100.542 100.542-55.528 0-100.542-45.014-100.542-100.542 0-1.261 0.023-2.517 0.069-3.767z"  horiz-adv-x="1000" />

    
    <glyph glyph-name="wendang" unicode="&#58882;" d="M796 732q27.008-24.992 43.008-41.504t24.512-28 10.496-19.488 2.016-14.016l0-16-148 0q-10.016 0-17.504 7.488t-12.512 17.504-7.488 20.512-2.496 16.512l0 124 3.008 0q8 0 16.512-2.496t19.488-9.504 27.488-20 41.504-35.008zM624.992 673.984q0-20 6.016-41.504t19.008-40 32.992-30.496 47.008-12l146.016 0 0-564q0-28.992-11.488-52t-30.496-39.008-42.016-24.992-44.992-8.992l-492 0q-19.008 0-41.504 11.008t-42.016 28.992-32.512 40.992-12.992 48l0 680q0 20.992 9.504 43.488t26.016 41.504 37.504 31.488 44 12.512l382.016 0 0-124.992zM688 49.984q26.016 0 44 18.496t18.016 44.512-18.016 44-44 18.016l-375.008 0q-26.016 0-44-18.016t-18.016-44 18.016-44.512 44-18.496l375.008 0zM750.016 361.984q0 26.016-18.016 44.512t-44 18.496l-375.008 0q-26.016 0-44-18.496t-18.016-44.512 18.016-44 44-18.016l375.008 0q26.016 0 44 18.016t18.016 44z"  horiz-adv-x="1024" />

    
    <glyph glyph-name="homeset" unicode="&#58923;" d="M789.754-13.77h-529.212c-52.709 0-95.594 41.070-95.594 91.553v217.314c0 16.262 13.183 29.444 29.444 29.444h430.16c16.262 0 29.443-13.183 29.443-29.444 0-16.262-13.182-29.444-29.443-29.444l-400.714-0v-187.871c0-18.012 16.464-32.664 36.705-32.664h529.212c20.243 0 36.711 14.652 36.711 32.664l0 217.314c0 16.262 13.185 29.444 29.444 29.444 16.263 0 29.445-13.183 29.445-29.444v-217.314c0.001-50.483-42.883-91.553-95.599-91.553zM944.372 382.881c-0.020 0.004-0.043 0.003-0.067 0h-838.303c-10.050 0-19.408 5.128-24.816 13.6-5.409 8.469-6.122 19.117-1.895 28.235l173.203 373.429c4.824 10.401 15.246 17.055 26.712 17.055h457.256c10.685 0 20.531-5.788 25.727-15.125l206.917-371.762c2.984-4.605 4.711-10.093 4.711-15.986-0.001-16.262-13.179-29.446-29.446-29.446zM152.117 441.77h742.102l-175.069 314.54h-421.142l-145.891-314.54z"  horiz-adv-x="1024" />

    
    <glyph glyph-name="shouji" unicode="&#58925;" d="M719.124849-145.385836 303.01171-145.385836c-61.285808 0-110.966301 50.096978-110.966301 111.923092L192.045409 638.086042c0 61.826114 49.680493 111.925139 110.966301 111.925139l416.113139 0c61.286832 0 110.967324-50.099025 110.967324-111.925139l0-671.548786C830.092174-95.288858 780.411681-145.385836 719.124849-145.385836zM774.600325 638.086042c0 30.895661-24.839735 55.962569-55.475476 55.962569L303.01171 694.048611c-30.633694 0-55.482639-25.066909-55.482639-55.962569l0-27.981285 527.071254 0L774.600325 638.086042zM774.600325 554.142188 247.529071 554.142188l0-446.828698 527.071254 0L774.600325 554.142188zM774.600325 51.352967 247.529071 51.352967l0-84.815711c0-30.912034 24.848944-55.961546 55.482639-55.961546l416.113139 0c30.635741 0 55.475476 25.049512 55.475476 55.961546L774.600325 51.352967zM511.07135-61.444029c-22.973224 0-41.60149 18.790972-41.60149 41.971927 0 23.183002 18.628266 41.974997 41.60149 41.974997 22.971178 0 41.597397-18.790972 41.597397-41.974997C552.668747-42.653057 534.042527-61.444029 511.07135-61.444029z"  horiz-adv-x="1024" />

    
    <glyph glyph-name="gerenzhongxin" unicode="&#59035;" d="M816.567135-116.984996M942.043918 16.593302M719.410352 696.978337c-51.837622 51.843762-120.653941 80.395028-193.773262 80.395028-151.192468 0-274.196942-122.999358-274.196942-274.185686 0-52.103682 14.745842-102.831017 42.644239-146.697083 22.874987-35.96819 53.6632-66.026786 89.881077-87.950098-54.200436-20.193925-104.140849-52.2889-145.531538-93.696985-76.711126-76.723406-118.958322-178.713264-118.958322-287.181675 0-17.768689 14.471596-32.224935 32.258705-32.224935 17.757432 0 32.203446 14.456247 32.203446 32.224935 0 91.263563 35.549657 177.075974 100.101859 241.633293 61.870116 61.907978 144.06207 97.392144 231.481072 99.940177 3.403516-0.141216 6.803963-0.212848 10.114358-0.212848 151.170978 0 274.15601 122.990149 274.15601 274.164197C799.795147 576.312116 771.246951 645.135598 719.410352 696.978337zM529.91758 293.520425c-1.481747 0.211824-2.934842 0.319272-4.333702 0.319272-3.219321 0-6.470365-0.039909-9.92607-0.121773-112.028493 5.27412-199.73095 97.218182-199.73095 209.470779 0 115.6336 94.077655 209.709209 209.714326 209.709209s209.714326-94.074585 209.714326-209.708186C735.351416 389.684602 643.273301 295.811608 529.91758 293.520425zM812.797275 174.849652c-6.094812 6.083555-14.189164 9.434883-22.793122 9.434883-8.604982 0-16.699334-3.350304-22.811542-9.452279-12.539594-12.57848-12.524245-33.017998 0.029676-45.557592 64.561411-64.551178 100.117209-150.367683 100.117209-241.641479 0-17.755386 14.452153-32.200376 32.216749-32.200376 17.769712 0 32.225959 14.44499 32.225959 32.200376C931.782204-3.871799 889.527844 98.128293 812.797275 174.849652z"  horiz-adv-x="1024" />

    
    <glyph glyph-name="1" unicode="&#58896;" d="M512.018063 807.75516c-280.448474 0-507.75516-227.324749-507.75516-507.773223 0-280.430411 227.306685-507.75516 507.75516-507.75516 280.430411 0 507.737096 227.324749 507.737096 507.75516C1019.75516 580.430411 792.448474 807.75516 512.018063 807.75516zM546.898007 55.479132l-58.217534 0L488.680473 457.167472c-25.234221-25.234221-57.260187-49.474969-96.059834-72.75837L392.620639 439.718469c48.499559 32.983313 88.292679 71.764897 119.343235 116.435068l34.934133 0L546.898007 55.479132z"  horiz-adv-x="1024" />

    
    <glyph glyph-name="3" unicode="&#58897;" d="M512.036126 807.737096c-280.448474 0-507.75516-227.342812-507.75516-507.75516 0-280.412348 227.306685-507.75516 507.75516-507.75516 280.430411 0 507.737096 227.342812 507.737096 507.75516C1019.773223 580.376222 792.466537 807.737096 512.036126 807.737096zM653.163521 173.395378c-4.877051-37.860363-21.838349-68.405151-50.938084-91.688552s-62.119174-34.464491-98.949938-33.489081c-36.884953 0.957347-68.892856 12.590016-96.059834 34.934133-27.185041 22.289928-44.670171 54.803599-52.383136 97.504886l52.383136 8.724502c7.749092-25.234221 20.375234-46.133286 37.8423-62.570753 17.48513-16.50972 39.305415-24.313001 65.496984-23.283401 26.191568 0.957347 47.018381 11.650732 62.570753 31.989839 15.498183 20.393297 22.271865 43.676698 20.375234 69.850203-1.95082 26.209631-12.138437 46.584865-30.562851 61.143764-18.442477 14.558899-48.011854 24.746516-88.762321 30.562851l0 37.8423c40.750467 3.865514 70.301782 14.558899 88.762321 32.025966 18.442477 17.467067 26.66121 40.244699 24.746516 68.405151-1.95082 28.106262-14.558899 48.481496-37.8423 61.125701-23.283401 12.590016-48.029917 14.053131-74.221485 4.371282-26.191568-9.736038-47.054507-36.884953-62.588816-81.500935l-52.383136 8.724502c11.650732 34.934133 27.654683 64.033868 48.029917 87.317269s48.029917 36.848827 82.96405 40.750467c34.91607 3.865514 65.47892-0.487705 91.688552-13.095784 26.191568-12.644205 44.615982-32.007903 55.309367-58.217534 10.639196-26.209631 12.102311-54.857788 4.353219-85.872217-7.785218-31.068619-30.111272-58.217534-66.942036-81.500935 27.148915-11.650732 48.029917-29.099735 62.588816-52.383136C653.163521 241.800529 657.986382 211.201552 653.163521 173.395378z"  horiz-adv-x="1024" />

    
    <glyph glyph-name="password" unicode="&#58996;" d="M880-128h-736c-29.248 0-64 31.104-64 64v544c0 23.68 32.032 64 64 64 15.328 0 64 0 64 0v96c0 149.44 128.768 254.528 288 256 156.608-1.472 288-104.096 288-256v-64h-64v64c0 124.64-94.432 191.296-224 192-132.608-0.768-224-69.408-224-192v-96h512c0 0 76.576 0 96 0 35.072 0 64-28.384 64-64v-544c0-31.68-34.752-64-64-64zM880 480h-736v-544h736v544zM528 416c88.352 0 160-71.648 160-160 0-77.408-54.976-141.952-128-156.768v-99.232c0-17.664-14.336-32-32-32s-32 14.336-32 32v99.232c-73.024 14.816-128 79.36-128 156.768 0 88.352 71.648 160 160 160zM528 160c53.024 0 96 42.976 96 96s-42.976 96-96 96c-53.024 0-96-42.976-96-96 0-53.024 42.976-96 96-96z"  horiz-adv-x="1024" />

    
    <glyph glyph-name="2" unicode="&#58900;" d="M512.036126 807.737096c-280.448474 0-507.75516-227.342812-507.75516-507.773223 0-280.412348 227.306685-507.75516 507.75516-507.75516 280.430411 0 507.737096 227.342812 507.737096 507.75516C1019.773223 580.376222 792.466537 807.737096 512.036126 807.737096zM654.608573 55.479132 360.630799 55.479132l0 11.650732c1.896631 29.099735 15.498183 55.309367 40.750467 78.592768 25.216158 23.283401 57.224061 59.680649 96.059834 109.155618 38.781584 49.493032 64.015805 87.786911 75.666537 114.990016 11.650732 27.148915 16.022014 50.432316 13.113847 69.850203-2.908167 19.38176-12.1565 35.385712-27.654683 48.029917-15.552373 12.590016-33.489081 17.918645-53.846252 16.003951-20.375234-1.95082-39.79312-9.736038-58.217534-23.283401-18.46054-13.601552-32.513671-33.976786-42.213583-61.125701l-55.309367 8.724502c15.498183 44.615982 35.385712 77.147716 59.680649 97.504886 24.240748 20.375234 52.852778 31.520198 85.872217 33.471018 19.363697 1.914694 36.830764 1.463115 52.383136-1.463115 15.498183-2.908167 31.520198-9.736038 48.029917-20.375234 16.45553-10.693385 30.057082-26.697336 40.750467-48.029917 10.639196-21.38677 14.558899-47.07257 11.650732-77.147716-2.908167-30.111272-17.972835-65.984689-45.12175-107.692503-27.203105-41.762004-79.586241-107.240924-157.185535-196.454824L654.608573 107.880332 654.608573 55.479132z"  horiz-adv-x="1024" />

    
    <glyph glyph-name="xingzhuang13" unicode="&#58898;" d="M704.844108 452.908108C704.844108 452.908108 292.255135 452.908108 292.255135 452.908108 292.255135 452.908108 292.255135 701.878486 292.255135 701.878486 292.255135 701.878486 374.009081 701.878486 374.009081 701.878486 387.459459 759.001081 439.434378 812 500.265514 812 561.096649 812 609.639784 759.001081 623.090162 701.878486 623.090162 701.878486 704.844108 701.878486 704.844108 701.878486 704.844108 701.878486 704.844108 452.050162 704.844108 452.050162 704.844108 452.050162 704.844108 452.908108 704.844108 452.908108 704.844108 452.908108 704.844108 452.908108 704.844108 452.908108 704.844108 452.908108 704.844108 452.908108 704.844108 452.908108ZM649.714162 508.480865C649.714162 508.480865 649.714162 648.049297 649.714162 648.049297 649.714162 648.049297 567.074595 648.049297 567.074595 648.049297 567.074595 648.049297 567.074595 682.339459 567.074595 682.339459 567.074595 720.836324 538.540973 757.312865 500.293189 757.312865 462.01773 757.312865 428.281081 720.836324 428.281081 682.339459 428.281081 682.339459 428.281081 648.049297 428.281081 648.049297 428.281081 648.049297 343.925622 648.049297 343.925622 648.049297 343.925622 648.049297 344.811243 508.480865 344.811243 508.480865 344.811243 508.480865 344.811243 508.480865 344.811243 508.480865 344.811243 508.480865 649.714162 508.480865 649.714162 508.480865ZM792.880432-212C792.880432-212 231.119568-212 231.119568-212 141.837838-212 69.189189-138.880865 69.189189-49.073297 69.189189-49.073297 69.189189 516.091676 69.189189 516.091676 69.189189 605.899243 141.837838 674.700973 231.119568 674.700973 231.119568 674.700973 344.811243 674.700973 344.811243 674.700973 344.811243 674.700973 344.811243 508.480865 344.811243 508.480865 344.811243 508.480865 651.430054 508.480865 651.430054 508.480865 651.430054 508.480865 649.714162 674.700973 649.714162 674.700973 649.714162 674.700973 792.880432 674.700973 792.880432 674.700973 882.162162 674.700973 954.810811 605.899243 954.810811 516.091676 954.810811 516.091676 954.810811-49.073297 954.810811-49.073297 954.810811-138.880865 882.162162-212 792.880432-212 792.880432-212 792.880432-212 792.880432-212 792.880432-212 792.880432-212 792.880432-212ZM231.119568 619.155892C174.605838 619.155892 121.745297 572.909838 121.745297 516.091676 121.745297 516.091676 121.745297-49.073297 121.745297-49.073297 121.745297-105.891459 174.633514-156.454919 231.119568-156.454919 231.119568-156.454919 792.880432-156.454919 792.880432-156.454919 849.394162-156.454919 897.937297-105.891459 897.937297-49.073297 897.937297-49.073297 897.937297 516.091676 897.937297 516.091676 897.937297 572.909838 849.394162 619.155892 792.880432 619.155892 792.880432 619.155892 704.844108 619.155892 704.844108 619.155892 704.844108 619.155892 704.844108 452.908108 704.844108 452.908108 704.844108 452.908108 292.255135 452.908108 292.255135 452.908108 292.255135 452.908108 292.255135 619.155892 292.255135 619.155892 292.255135 619.155892 231.119568 619.155892 231.119568 619.155892 231.119568 619.155892 231.119568 619.155892 231.119568 619.155892 231.119568 619.155892 231.119568 619.155892 231.119568 619.155892ZM495.477622-12.541405C488.752432-12.541405 482.220973-10.244324 476.907243-5.954595 476.907243-5.954595 311.683459 126.999351 311.683459 126.999351 298.841946 137.350054 296.76627 156.169514 307.033946 169.094054 317.301622 181.990919 336.038054 184.09427 348.824216 173.771243 348.824216 173.771243 488.198919 61.60173 488.198919 61.60173 488.198919 61.60173 701.716757 399.189622 701.716757 399.189622 710.517622 413.110486 728.921946 417.206486 742.787459 408.377946 756.625297 399.494054 760.721297 380.979027 751.892757 367.058162 751.892757 367.058162 520.551784 1.351784 520.551784 1.351784 516.040649-5.843892 508.678919-10.714811 500.348541-12.098595 498.743351-12.403027 497.110486-12.541405 495.477622-12.541405 495.477622-12.541405 495.477622-12.541405 495.477622-12.541405 495.477622-12.541405 495.477622-12.541405 495.477622-12.541405Z"  horiz-adv-x="1024" />

    
    <glyph glyph-name="addCategory" unicode="&#58894;" d="M544 64c-2.75 0-5.419-0.348-7.965-1h-329.533c-8.838 0-16.002 7.162-16.002 16.006v492.994h224.495c17.682 0 32.005 14.326 32.005 31.999v229.001h303.999c8.837 0 16.001-7.161 16.001-15.994v-529.006c0-17.673 14.327-32 32-32s32 14.327 32 32v575.995c0 17.682-14.326 32.005-31.999 32.005h-433.998c-8.839 0-20.995-5.139-27.154-11.478l-199.697-205.544c-6.164-6.344-11.152-18.644-11.152-27.483v-619.497c0-17.67 14.323-31.998 31.992-31.998l384.008 0.025c0.333-0.010 0.665-0.025 1-0.025 17.673 0 32 14.327 32 32s-14.327 32-32 32zM384 830.104v-178.103c0-8.837-7.161-16.001-15.994-16.001h-175.106l191.1 194.104zM927 63.587h-95.5v94.5c0 17.673-14.327 32-32 32s-32-14.327-32-32v-94.5h-93.588c-17.673 0-32-14.327-32-32s14.327-32 32-32h93.588v-94.587c0-17.673 14.327-32 32-32s32 14.327 32 32v94.587h95.5c17.673 0 32 14.327 32 32s-14.327 32-32 32z"  horiz-adv-x="1024" />

    
    <glyph glyph-name="gengxin" unicode="&#59357;" d="M1188.744 420.694l-136.39-140.099c-11.217-11.084-29.41-11.084-40.627 0l-135.49 140.099c-16.102 19.217-5.343 26.061 5.874 37.161h124.058c-34.23 189.001-196.958 332.305-392.927 332.305-151.509 0-283.298-85.613-351.132-211.796l-67.678 27.501c78.888 153.329 236.679 258.137 418.81 258.137 236.188 0 431.342-176.206 466.384-406.146h103.237c11.224-11.1 17.098-26.067 5.881-37.161v0zM216.298 450.485l136.39-140.093c11.217-11.094 5.343-26.075-5.881-37.162h-118.094c47.456-170.443 201.528-295.379 384.529-295.379 139.262 0 261.777 72.4 333.37 182.080l68.362-27.777c-83.267-136.743-231.807-228.155-401.732-228.155-223.354 0-409.674 157.662-458.931 369.23h-108.253c-11.224 11.088-21.979 17.936-5.876 37.162l135.492 140.093c11.217 11.092 29.408 11.092 40.626 0v0zM216.298 450.485z"  horiz-adv-x="1241" />

    
    <glyph glyph-name="users" unicode="&#58915;" d="M537.867 342.265c55.242 40.735 91.087 106.257 91.087 180.16 0 123.546-100.157 223.699-223.701 223.699-123.547 0-223.7-100.154-223.7-223.699 0-73.902 35.844-139.424 91.087-180.159-140.431-53.465-240.222-189.353-240.222-348.551h74.566c0 164.724 133.538 298.288 298.269 298.288 164.729 0 298.269-133.543 298.269-298.269h74.566c0.001 159.199-99.791 295.068-240.219 348.531zM417.831 366.334c-4.179 0.139-8.368 0.235-12.58 0.235s-8.4-0.095-12.579-0.234c-80.601 6.409-144.011 73.841-144.011 156.089 0 86.482 70.107 156.589 156.589 156.589 86.483 0 156.591-70.108 156.591-156.589 0.001-82.247-63.412-149.681-144.011-156.090zM751.362 370.428c55.243 40.735 91.086 106.257 91.086 180.159 0 123.546-100.153 223.7-223.698 223.7l-0.001-67.11c86.482 0 156.589-70.108 156.589-156.589 0-82.247-63.41-149.68-144.010-156.089-4.179 0.138-8.368 0.233-12.579 0.233v-74.566c164.73 0 298.269-133.564 298.269-298.288h74.565c0 159.198-99.79 295.087-240.221 348.55z"  horiz-adv-x="1024" />

    
    <glyph glyph-name="shanchu" unicode="&#59125;" d="M767.308 11.41c-6.225 0-12.449 2.375-17.197 7.124L249.736 518.908c-9.498 9.498-9.498 24.896 0 34.394 9.498 9.498 24.897 9.498 34.394 0l500.375-500.374c9.498-9.498 9.498-24.896 0-34.395C779.757 13.785 773.533 11.41 767.308 11.41zM266.933 11.41c-6.224 0-12.449 2.375-17.197 7.124-9.498 9.498-9.498 24.896 0 34.394l500.375 500.375c9.498 9.498 24.896 9.498 34.395 0 9.498-9.498 9.498-24.896 0-34.394L284.131 18.533C279.382 13.785 273.157 11.41 266.933 11.41z"  horiz-adv-x="1024" />

    
    <glyph glyph-name="weixiu" unicode="&#58940;" d="M117.051322 872.111975c31.8507 31.8507 19.11042 31.8507 50.96112 0C218.973561 814.780715 276.304821 763.819596 327.265941 706.488336c12.74028-12.74028 12.74028-19.11042 0-31.8507C301.785381 655.527216 301.785381 655.527216 327.265941 636.416796 365.486781 591.825816 410.07776 553.604977 448.2986 521.754277c6.37014-6.37014 6.37014-19.11042 0-25.48056C429.18818 477.163297 416.4479 458.052877 397.337481 445.312597 390.967341 438.942457 384.597201 438.942457 378.227061 445.312597c0 0 0 0 0 0C333.636081 489.903577 295.415241 528.124417 250.824261 572.715397 238.083981 585.455677 231.713841 585.455677 218.973561 572.715397 199.863142 547.234837 199.863142 547.234837 180.752722 572.715397 136.161742 610.936236 40.609642 706.488336 8.758942 744.709176 2.388802 751.079316 2.388802 757.449456 8.758942 763.819596 34.239502 789.300156 85.200622 840.261275 117.051322 872.111975zM785.916019 878.482115c-57.33126-63.7014-114.662519-127.402799-178.363919-191.104199C594.81182 674.637636 594.81182 661.897356 601.18196 642.786936c19.11042-44.59098 31.8507-89.18196 44.59098-133.772939 6.37014-12.74028 12.74028-19.11042 25.48056-19.11042 44.59098-6.37014 95.5521-19.11042 140.143079-25.48056 19.11042-6.37014 25.48056 0 38.22084 12.74028 50.96112 50.96112 95.5521 108.292379 146.513219 159.253499 6.37014 6.37014 12.74028 12.74028 19.11042 19.11042 6.37014-31.8507 6.37014-63.7014 0-89.18196-25.48056-114.662519-108.292379-184.734059-222.954899-203.844479-38.22084-6.37014-76.44168 0-114.662519 12.74028-6.37014 0-25.48056 0-31.8507-6.37014-101.92224-63.7014-191.104199-146.513219-267.545879-242.065319-6.37014-12.74028-12.74028-19.11042-6.37014-31.8507 25.48056-89.18196-31.8507-178.363919-114.662519-197.474339-95.5521-19.11042-171.993779 38.22084-191.104199 121.032659-19.11042 95.5521 50.96112 191.104199 152.883359 191.104199 12.74028 0 31.8507 0 44.59098 0 6.37014 0 12.74028 0 19.11042 6.37014C371.856921 298.799378 448.2986 394.351477 512 502.643857c6.37014 6.37014 6.37014 19.11042 0 31.8507-57.33126 152.883359 38.22084 318.506998 197.474339 343.987558C734.954899 884.852255 760.435459 878.482115 785.916019 878.482115 785.916019 878.482115 785.916019 878.482115 785.916019 878.482115zM308.155521 50.363919c0 50.96112-38.22084 89.18196-89.18196 89.18196-50.96112 0-89.18196-38.22084-89.18196-89.18196 0-50.96112 38.22084-89.18196 89.18196-89.18196C269.934681-38.81804 308.155521 5.772939 308.155521 50.363919zM805.026439-108.88958c-25.48056 0-50.96112 6.37014-70.07154 25.48056-76.44168 76.44168-146.513219 152.883359-222.954899 229.325039-6.37014 6.37014-6.37014 19.11042 0 25.48056 44.59098 70.07154 101.92224 127.402799 184.734059 159.253499 12.74028 6.37014 19.11042 6.37014 25.48056-6.37014 70.07154-70.07154 140.143079-133.772939 210.214619-197.474339 50.96112-44.59098 50.96112-108.292379 0-152.883359-19.11042-19.11042-38.22084-38.22084-50.96112-50.96112C862.357698-96.1493 836.877138-108.88958 805.026439-108.88958zM906.948678 82.214619c0 0-191.104199 191.104199-191.104199 191.104199-12.74028 12.74028-25.48056 6.37014-38.22084 0-12.74028-12.74028-12.74028-25.48056 0-38.22084 0-6.37014 197.474339-197.474339 197.474339-197.474339s19.11042-6.37014 38.22084 6.37014C919.688958 56.734059 906.948678 82.214619 906.948678 82.214619zM588.44168 190.506998c-12.74028-12.74028-6.37014-38.22084 0-44.59098 57.33126-63.7014 121.032659-121.032659 184.734059-184.734059 12.74028-12.74028 31.8507-19.11042 44.59098-6.37014 12.74028 12.74028 12.74028 31.8507-6.37014 44.59098-57.33126 63.7014-121.032659 121.032659-184.734059 178.363919C626.662519 190.506998 607.5521 203.247278 588.44168 190.506998z"  horiz-adv-x="1024" />

    
    <glyph glyph-name="exit" unicode="&#58895;" d="M527.035-46.621c-247.174 0-447.544 200.371-447.544 447.539 0 190.783 119.586 353.238 287.702 417.623v-69.242c-131.96-60.646-223.765-193.625-223.765-348.382 0-211.846 171.76-383.607 383.607-383.607 211.846 0 383.606 171.763 383.606 383.607 0 154.756-91.811 287.736-223.771 348.411v69.212c168.114-64.384 287.703-226.84 287.703-417.623 0.003-247.168-200.367-447.539-447.536-447.539v0zM495.067 848.461h63.931l-0-448.693h-63.931l0 448.693z"  horiz-adv-x="1024" />

    
    <glyph glyph-name="chexiaozhong" unicode="&#58886;" d="M958.678 606.343l0.050 0.013-446.141 222.172-446.167-221.749v-444.693l446.168-222.179 446.141 222.179v444.256h-0.051zM512.588 774.725l335.423-167.486-127.625-64.14-337.199 166.996 129.401 64.63zM324.749 678.564l341.523-163.905-153.683-73.988-335.427 165.683 147.589 72.208zM122.166 550.156l17.815 0.023-17.815 0.612v27.822l362.478-180.477v-388.8l-362.478 180.486v360.334zM903.010 523.052v-333.232l-362.478-180.486v388.8l362.477 180.478v-55.561z"  horiz-adv-x="1024" />

    
    <glyph glyph-name="search" unicode="&#58939;" d="M482.107 10.025c-224.517 0-407.158 182.663-407.158 407.137 0 224.496 182.641 407.137 407.158 407.137 224.496 0 407.137-182.641 407.137-407.137 0-224.474-182.641-407.137-407.137-407.137zM482.107 758.716c-188.326 0-341.555-153.206-341.555-341.532s153.206-341.532 341.555-341.532c188.326 0 341.532 153.206 341.532 341.532 0 188.304-153.206 341.532-341.532 341.532zM936.25-69.609c-8.397 0-16.794 3.193-23.202 9.6l-169.367 169.367c-12.815 12.815-12.815 33.567 0 46.382s33.567 12.815 46.382 0l169.367-169.367c12.815-12.815 12.815-33.567 0-46.382-6.407-6.407-14.783-9.6-23.18-9.6z"  horiz-adv-x="1024" />

    
    <glyph glyph-name="p-types" unicode="&#59000;" d="M740.041-102.040c-39.246 0-71.176 31.878-71.176 71.062l0 276.668c0 39.217 31.93 71.123 71.176 71.123l276.616-0c39.184 0 71.062-31.905 71.062-71.123v-276.667c0-39.184-31.878-71.062-71.062-71.062l-276.616 0zM774.631 253.438c-23.345 0-42.337-18.992-42.337-42.336l0-207.49c0-23.345 18.994-42.337 42.337-42.337h207.436c23.345 0 42.337 18.994 42.337 42.337l0 207.491c0 23.345-18.994 42.336-42.337 42.336h-207.436zM740.041 451.184c-39.246 0-71.176 31.905-71.176 71.122l0 276.671c0 39.184 31.93 71.062 71.176 71.062h276.616c39.184 0 71.062-31.878 71.062-71.062v-276.671c0-39.217-31.878-71.122-71.062-71.122h-276.616zM774.631 806.672c-23.345 0-42.337-18.996-42.337-42.345v-207.37c0-23.35 18.994-42.345 42.337-42.345h207.436c23.345 0 42.337 18.996 42.337 42.345l0 207.37c0 23.35-18.994 42.345-42.337 42.345h-207.436zM186.643-102.040c-39.184 0-71.062 31.878-71.062 71.062l0 276.668c0 39.217 31.878 71.123 71.062 71.123h276.616c39.213 0 71.115-31.905 71.115-71.123v-276.667c0-39.184-31.902-71.062-71.115-71.062h-276.616zM221.292 253.438c-23.35 0-42.345-18.992-42.345-42.336v-207.49c0-23.345 18.996-42.337 42.345-42.337h207.43c23.346 0 42.337 18.994 42.337 42.339l-0.052 207.489c0 23.345-18.996 42.336-42.345 42.336l-207.37-0zM186.643 451.184c-39.184 0-71.062 31.905-71.062 71.122l0 276.671c0 39.184 31.878 71.062 71.062 71.062h276.616c39.213 0 71.115-31.878 71.115-71.062v-276.671c0-39.217-31.902-71.122-71.115-71.122h-276.616zM221.292 806.672c-23.35 0-42.345-18.996-42.345-42.345v-207.37c0-23.35 18.996-42.345 42.345-42.345h207.43c23.346 0 42.337 18.998 42.337 42.347l-0.052 207.367c0 23.35-18.996 42.345-42.345 42.345h-207.37zM-0 848.628z"  horiz-adv-x="1114" />

    
    <glyph glyph-name="code" unicode="&#58885;" d="M715.016 418.104c45.596 50.793 73.591 117.682 73.591 191.13 0 158.116-128.651 286.766-286.766 286.766-158.116 0-286.766-128.651-286.766-286.766 0-158.116 128.651-286.766 286.766-286.766 55.74 0 107.645 16.238 151.735 43.875 155.929-58.751 263.287-201.453 276.945-366.487h-857.324c9.284 111.086 61.404 214.681 146.179 288.595 14.948 13.012 16.489 35.631 3.477 50.578-12.976 14.912-35.631 16.489-50.578 3.477-109.509-95.422-172.275-233.356-172.275-378.496 0-19.823 16.059-35.846 35.846-35.846h931.991c19.823 0 35.846 16.023 35.846 35.846 0 196.65-113.99 372.259-288.666 454.095v0zM286.766 609.234c0 118.614 96.461 215.075 215.075 215.075 118.614 0 215.075-96.461 215.075-215.075 0-118.614-96.461-215.075-215.075-215.075-118.614 0-215.075 96.461-215.075 215.075v0z"  horiz-adv-x="1024" />

    
    <glyph glyph-name="addSub" unicode="&#59003;" d="M920.996-6.016c0.406-1.812 0.627-3.694 0.627-5.629 0-14.14-11.463-25.601-25.601-25.601h-768.045c-14.14 0-25.601 11.463-25.601 25.601 0 1.934 0.221 3.817 0.627 5.628v572.683c0 14.14 11.463 25.601 25.601 25.601s25.601-11.463 25.601-25.601v-552.71h715.586v739.146h-529.463c-14.139 0-25.601 11.463-25.601 25.601s11.463 25.601 25.601 25.601h548.187c2.19 0.61 4.494 0.942 6.878 0.942 9.091 0 17.070-4.743 21.613-11.885 2.906-4.153 4.617-9.204 4.617-14.659 0-1.934-0.221-3.817-0.627-5.628v-779.092zM268.324 607.583h230.571v-51.879h-230.571v51.879zM498.895 436.698h-230.571v51.881h230.571v-51.881zM268.236 358.459h519.569v-270.465h-519.569v270.465zM549.458 129.94h200.131v186.298h-200.131v-186.298zM306.177 129.94h202.759v186.298h-202.759v-186.298zM557.322 607.583h230.571v-51.879h-230.571v51.879zM787.893 436.698h-230.571v51.881h230.571v-51.881zM289.125 676.681h-54.816v-58.683c0-14.14-11.463-25.601-25.601-25.601s-25.601 11.463-25.601 25.601v58.683h-55.13c-14.14 0-25.601 11.463-25.601 25.601s11.463 25.601 25.601 25.601h55.13v51.263c0 14.139 11.463 25.601 25.601 25.601s25.601-11.463 25.601-25.601v-51.263h54.816c14.14 0 25.601-11.463 25.601-25.601s-11.463-25.601-25.601-25.601z"  horiz-adv-x="1024" />

    
    <glyph glyph-name="button-save" unicode="&#58962;" d="M951.519 579.454v0l-504.631-502.497c-11.927-11.841-28.349-19.179-46.572-19.179-18.113 0-34.592 7.339-46.515 19.179v0l-285.221 284.038c-11.923 11.841-19.291 28.236-19.291 46.318 0 36.193 29.47 65.554 65.807 65.554 18.166 0 34.649-7.339 46.515-19.207v0l238.705-237.665 458.116 456.151c11.924 11.866 28.405 19.178 46.516 19.178 36.393 0 65.862-29.332 65.862-65.526 0.001-18.11-7.367-34.477-19.291-46.345z"  horiz-adv-x="1024" />

    
    <glyph glyph-name="lock" unicode="&#58912;" d="M807.103 555.663h-26.243c0.076 0.983 0.12 1.974 0.115 2.971l0.585 57.248c-0.571 128.028-76.836 230.729-194.278 261.626-23.637 6.219-48.594 9.311-74.163 9.198-74.863-0.344-142.728-28.999-191.085-80.692-47.059-50.314-72.792-118.694-72.445-192.43l-2.179-57.178 2.824-0.743h-35.213c-74.128 0-134.431-60.301-134.431-134.42v-394.725c0-74.118 60.301-134.42 134.431-134.42h592.081c74.118 0 134.42 60.301 134.42 134.42l-0 394.726c0 74.118-60.302 134.419-134.42 134.419zM513.441 815.214c19.063 0.089 37.597-2.193 55.087-6.795 85.56-22.509 141.126-98.216 141.562-192.824l-0.584-57.243c0.004-0.905 0.054-1.8 0.125-2.691l-390.774-0 2.201 58.123c-0.526 116.209 80.382 200.926 192.384 201.43zM870.045 26.518c0-34.708-28.238-62.942-62.942-62.942h-592.081c-34.714 0-62.952 28.239-62.952 62.942v394.725c0 34.706 28.239 62.936 62.952 62.936h592.081c34.703 0 62.942-28.23 62.942-62.936l0-394.725zM511.061 358.3c-37.842 0-68.631-30.788-68.631-68.63 0-23.86 12.558-46.158 32.888-58.587v-105.888c0-19.704 16.030-35.735 35.744-35.735 19.703 0 35.735 16.031 35.735 35.735l-0 105.888c20.339 12.42 32.897 34.723 32.897 58.587-0.002 37.843-30.791 68.63-68.633 68.63z"  horiz-adv-x="1024" />

    
    <glyph glyph-name="SFA" unicode="&#58888;" d="M290.134 375.467v0c-16 9.6-19.2 32-6.4 44.8 28.8 35.2 83.2 89.6 140.8 96 28.8 3.2 57.6-6.4 80-25.6 25.6-22.4 48-32 67.2-28.8 41.6 9.6 80 73.6 102.4 124.8 6.4 16 25.6 22.4 41.6 16v0c16-6.4 22.4-25.6 16-41.6-32-64-76.8-147.2-150.4-160-41.6-9.6-83.2 6.4-124.8 44.8-9.6 9.6-19.2 12.8-28.8 9.6-32-3.2-73.6-41.6-99.2-73.6-6.4-12.8-22.4-16-38.4-6.4zM683.734-50.133h-355.2c-83.2 0-150.4 67.2-150.4 150.4v585.6c0 83.2 67.2 150.4 150.4 150.4h355.2c83.2 0 150.4-67.2 150.4-150.4v-582.4c0-83.2-67.2-153.6-150.4-153.6zM782.934 685.867c0 54.4-44.8 102.4-102.4 102.4h-352c-54.4 0-102.4-44.8-102.4-102.4v-480h556.8v480zM782.934 151.467h-556.8v-51.2c0-54.4 44.8-102.4 102.4-102.4h355.2c54.4 0 102.4 44.8 102.4 102.4v51.2zM504.534 26.667c-28.8 0-51.2 22.4-51.2 51.2 0 28.8 22.4 51.2 51.2 51.2 28.8 0 51.2-22.4 51.2-51.2 0-28.8-22.4-51.2-51.2-51.2z"  horiz-adv-x="1024" />

    
    <glyph glyph-name="copy" unicode="&#58889;" d="M677.322 663.837h-503.083c-61.739 0-111.796-50.057-111.796-111.796v-503.083c0-61.739 50.057-111.796 111.796-111.796h503.083c61.739 0 111.796 50.057 111.796 111.796v503.083c0 61.739-50.057 111.796-111.796 111.796zM733.22 48.958c0-30.842-25.056-55.898-55.898-55.898h-503.083c-30.815 0-55.898 25.056-55.898 55.898v503.083c0 30.842 25.083 55.898 55.898 55.898h503.083c30.842 0 55.898-25.056 55.898-55.898v-503.083zM230.137 440.245h391.287v55.898h-391.287v-55.898zM230.137 328.45h391.287v55.898l-391.287-0v-55.898zM230.137 216.653h391.287v55.898h-391.287v-55.898zM230.137 104.856h223.592v55.898h-223.592v-55.898zM845.016 831.532h-503.083c-61.739 0-111.796-50.057-111.796-111.796h55.898c0 30.842 25.083 55.898 55.898 55.898h503.083c30.842 0 55.898-25.056 55.898-55.898v-503.083c0-30.842-25.056-55.898-55.898-55.898v-55.898c61.739 0 111.796 50.057 111.796 111.796v503.083c0 61.739-50.057 111.796-111.796 111.796z"  horiz-adv-x="1024" />

    
    <glyph glyph-name="caiwuguanli" unicode="&#58944;" d="M181.032076 450.188468c18.866696 0 34.133402 15.283078 34.133402 34.133402 0 172.216293 140.099828 312.316122 312.333518 312.316122 172.19992 0 312.299749-140.099828 312.299749-312.316122 0-59.600423-16.833387-117.532857-48.700165-167.550017-10.133801-15.900132-5.433756-36.999682 10.466376-47.117111 5.66707-3.63376 12.033058-5.349845 18.299785-5.349845 11.266601 0 22.333658 5.583159 28.833699 15.799848 38.833447 60.98291 59.367109 131.600247 59.367109 204.216101 0 209.850425-170.733523 380.582925-380.566552 380.582925-209.866798 0-380.600321-170.733523-380.600321-380.582925C146.898675 465.47257 162.16538 450.188468 181.032076 450.188468zM641.254829 667.040355c-10.512425 10.512425-27.552519 10.512425-38.051641 0l-75.312266-75.31022-76.112492 76.112492c-10.512425 10.510378-27.539216 10.510378-38.051641 0-10.510378-10.510378-10.510378-27.552519 0-38.047548l87.160105-87.160105c-0.031722-0.537236-0.310062-0.995677-0.310062-1.542122l0-26.907836-67.271126 0c-14.862499 0-26.910906-12.048407-26.910906-26.910906s12.047384-26.907836 26.910906-26.907836l67.271126 0 0-53.816696-67.271126 0c-14.862499 0-26.910906-12.050454-26.910906-26.907836 0-14.860453 12.047384-26.909883 26.910906-26.909883l67.271126 0 0-80.724533c0-14.862499 12.048407-26.90579 26.910906-26.90579 14.858406 0 26.90579 12.043291 26.90579 26.90579l0 80.724533 67.271126 0c14.860453 0 26.909883 12.050454 26.909883 26.909883 0 14.858406-12.050454 26.907836-26.909883 26.907836l-67.271126 0 0 53.816696 67.271126 0c14.860453 0 26.909883 12.045337 26.909883 26.907836s-12.050454 26.910906-26.909883 26.910906l-67.271126 0 0 26.907836c0 0.305969-0.164752 0.558725-0.174985 0.862647l87.037309 87.037309C651.765207 639.501138 651.765207 656.529977 641.254829 667.040355zM951.464987 166.189276c-94.500281 19.399839-201.033619 78.899978-201.233164 78.899978-46.566572 31.133068-83.166141 46.266743-111.899556 46.266743-24.200168 0-44.366464-10.999518-55.266721-30.18344-14.100136-24.699542-9.533121-57.700143 2.200108-77.532841 5.399987-9.05012 15.932878-24.600281 27.132964-40.71633-232.966912 14.616906-273.399787 67.900459-319.600015 128.783085-14.433734 18.983353-29.333072 38.600133-49.800219 58.416458-37.733393 36.482913-68.433602 53.466726-96.632851 53.466726-21.833261 0-40.666188-10.383488-53.066613-29.233811-25.566282-38.933731-17.032932-109.200074-7.766894-130.599454 105.099686-242.716974 358.76706-285.133016 369.499495-286.816355 1.766226-0.283456 3.533476-0.416486 5.299703-0.416486l484.266355 0c18.866696 0 34.133402 15.283078 34.133402 34.133402L978.73098 132.755816C978.732004 148.955776 967.331349 162.939255 951.464987 166.189276zM910.465201 4.789329 463.365326 4.789329c-24.166399 4.666276-230.233662 49.866734-315.066769 245.800195-4.700045 12.716626-5.500271 51.349505 0.766456 64.183811 5.566786-1.666966 20.033265-8.167007 46.466288-33.716916 16.733103-16.183588 29.433356-32.91669 42.866297-50.633191 58.566884-77.116355 113.833605-149.966547 441.432805-158.76698 14.532995-0.816598 25.066909 6.733355 31.133068 18.200524 6.066159 11.499915 5.066389 25.449625-2.566452 35.966143-14.399965 19.816325-53.999868 75.100442-64.266699 92.416829-0.533143 1.033539-0.967024 2.683109-1.233084 4.400217 9.233292-1.550309 30.499641-8.300037 71.566966-35.649941 4.333702-2.449795 98.999758-55.56655 195.999976-81.233116L910.465201 4.789329 910.465201 4.789329z"  horiz-adv-x="1024" />

    
    <glyph glyph-name="zuzhijiagou" unicode="&#58941;" d="M933.40625 207.28125L865.4375 207.28125 865.4375 384c0 22.5-18.28125 40.78125-40.78125 40.78125L539.1875 424.78125l0 135.9375 67.96875 0c22.5 0 40.78125 18.28125 40.78125 40.78125L647.9375 791.8125c0 22.5-18.28125 40.78125-40.78125 40.78125l-190.3125 0C394.34375 832.59375 376.0625 814.3125 376.0625 791.8125l0-190.3125c0-22.5 18.28125-40.78125 40.78125-40.78125L484.8125 560.71875l0-135.9375L199.34375 424.78125c-22.5 0-40.78125-18.28125-40.78125-40.78125l0-176.71875L90.59375 207.28125C68.09375 207.28125 49.8125 189 49.8125 166.5l0-190.3125c0-22.5 18.28125-40.78125 40.78125-40.78125l190.3125 0c22.5 0 40.78125 18.28125 40.78125 40.78125L321.6875 166.5c0 22.5-18.28125 40.78125-40.78125 40.78125L212.9375 207.28125l0 163.125 271.875 0 0-163.125-67.96875 0c-22.5 0-40.78125-18.28125-40.78125-40.78125l0-190.3125c0-22.5 18.28125-40.78125 40.78125-40.78125l190.3125 0c22.5 0 40.78125 18.28125 40.78125 40.78125L647.9375 166.5c0 22.5-18.28125 40.78125-40.78125 40.78125L539.1875 207.28125l0 163.125 271.875 0 0-163.125-67.96875 0c-22.5 0-40.78125-18.28125-40.78125-40.78125l0-190.3125c0-22.5 18.28125-40.78125 40.78125-40.78125l190.3125 0c22.5 0 40.78125 18.28125 40.78125 40.78125L974.1875 166.5C974.1875 189 955.90625 207.28125 933.40625 207.28125zM430.4375 778.21875l163.125 0 0-163.125L430.4375 615.09375 430.4375 778.21875zM267.3125 152.90625l0-163.125L104.1875-10.21875l0 163.125L267.3125 152.90625zM593.5625-10.21875L430.4375-10.21875l0 163.125 163.125 0L593.5625-10.21875zM919.8125-10.21875L756.6875-10.21875l0 163.125 163.125 0L919.8125-10.21875z"  horiz-adv-x="1024" />

    
    <glyph glyph-name="setting" unicode="&#58919;" d="M540.829 755.053c15.637 0 28.524-12.892 28.524-28.563v-34.259c0-15.712 12.311-32.382 27.258-37.014l47.718-19.658c5.136-2.755 11.179-4.071 17.313-4.071 10.407 0 21.075 3.787 28.025 10.769l24.295 24.281c5.568 5.547 12.886 8.323 20.202 8.323s14.628-2.775 20.183-8.323l40.383-40.355c11.136-11.102 11.136-29.276 0-40.414l-24.297-24.263c-11.046-11.113-14.094-31.508-6.671-45.341l19.649-47.799c4.68-14.993 21.309-27.264 37.005-27.264h34.257c15.667 0 28.494-12.83 28.494-28.553v-57.127c0-15.714-12.828-28.551-28.494-28.551h-34.257c-15.632 0-32.325-12.268-37.005-27.233l-19.649-47.801c-7.423-13.857-4.375-34.315 6.671-45.37l24.297-24.261c11.136-11.124 11.136-29.285 0-40.417l-40.383-40.385c-5.555-5.547-12.867-8.321-20.183-8.321s-14.634 2.772-20.202 8.321l-24.18 24.309c-6.973 6.947-17.614 10.726-27.996 10.726-6.156 0-12.221-1.329-17.37-4.118l-47.806-19.654c-14.946-4.666-27.258-21.304-27.258-37.023v-34.16c0-15.671-12.886-28.535-28.524-28.535h-57.045c-15.753 0-28.585 12.864-28.585 28.535l-0 34.157c0 15.718-12.225 32.357-27.221 37.023l-47.871 19.654c-5.137 2.789-11.184 4.118-17.323 4.118-10.35 0-20.958-3.781-27.894-10.726l-24.326-24.309c-5.552-5.547-12.863-8.321-20.17-8.321-7.307 0-14.613 2.772-20.153 8.321l-40.414 40.385c-11.048 11.132-11.048 29.292 0 40.417l24.297 24.261c11.106 11.057 14.094 31.514 6.703 45.37l-19.71 47.801c-4.623 14.964-21.221 27.233-36.941 27.26h-34.228c-15.699 0-28.555 12.867-28.555 28.587v57.064c0 15.723 12.858 28.553 28.555 28.553l34.228-0.032c15.721 0 32.355 12.278 36.999 27.267l19.654 47.828c7.453 13.834 4.433 34.228-6.703 45.341l-24.234 24.29c-11.111 11.111-11.111 29.285 0 40.387l40.351 40.355c5.54 5.547 12.845 8.323 20.153 8.323 7.307 0 14.619-2.775 20.17-8.323l24.358-24.281c6.967-6.993 17.593-10.775 27.969-10.775 6.126 0 12.164 1.318 17.309 4.078l47.778 19.658c14.996 4.633 27.221 21.302 27.221 37.014v34.259c0 15.671 12.862 28.563 28.585 28.563l57.043-0M512.364 241.356c78.783 0 142.649 63.848 142.649 142.692 0 78.806-63.867 142.699-142.649 142.699-78.806 0-142.669-63.893-142.669-142.699-0.001-78.844 63.864-142.692 142.669-142.692M540.829 829.28h-57.045c-56.691 0-102.813-46.111-102.813-102.79v-10.35l-10.637-4.377-7.368 7.344c-19.319 19.309-45.117 29.981-72.574 29.981-27.487 0-53.299-10.692-72.681-30.105l-40.312-40.317c-19.382-19.365-30.070-45.185-30.070-72.673 0-27.478 10.68-53.292 30.075-72.685l7.237-7.253-4.411-10.734-10.214 0.009c-56.743 0-102.851-46.107-102.851-102.781v-57.064c0-56.692 46.108-102.815 102.783-102.815h10.245l4.42-10.717-7.233-7.221c-39.917-40.194-39.922-105.245-0.236-145.232l40.629-40.602c19.333-19.355 45.142-30.041 72.622-30.041 27.449 0 53.245 10.667 72.631 30.035l7.237 7.231 10.711-4.397v-10.241c0-56.663 46.121-102.762 102.813-102.762h57.045c56.657 0 102.751 46.1 102.751 102.762v10.236l10.72 4.408 7.033-7.072c19.638-19.56 45.416-30.2 72.83-30.2 27.448 0 53.243 10.663 72.63 30.024l40.422 40.424c19.401 19.393 30.091 45.214 30.091 72.696 0 27.491-10.697 53.317-30.119 72.719l-7.24 7.229 4.396 10.697h10.326c56.641 0 102.722 46.107 102.722 102.779v57.127c0 56.674-46.081 102.781-102.722 102.781h-10.313l-4.401 10.706 7.22 7.21c19.467 19.472 30.153 45.32 30.13 72.83-0.023 27.491-10.739 53.301-30.173 72.676l-40.32 40.292c-19.398 19.379-45.196 30.046-72.651 30.046-27.421 0-53.203-10.644-72.598-29.972l-7.352-7.35-10.632 4.381v10.343c0 56.676-46.095 102.787-102.752 102.787v0zM512.364 315.584c-37.74 0-68.442 30.712-68.442 68.464 0 37.755 30.703 68.471 68.442 68.471 37.727 0 68.421-30.717 68.421-68.471 0-37.752-30.694-68.464-68.421-68.464v0z"  horiz-adv-x="1024" />

    
    <glyph glyph-name="quxiao" unicode="&#58911;" d="M511.317 833.402c-247.539 0-448.208-200.669-448.208-448.208s200.669-448.208 448.208-448.208 448.208 200.669 448.208 448.208-200.669 448.208-448.208 448.208zM709.097 246.817c16.414-16.414 16.414-43.004 0-59.418-8.207-8.207-18.958-12.31-29.709-12.31s-21.502 4.103-29.709 12.31l-138.37 138.375-138.368-138.375c-8.207-8.207-18.958-12.31-29.709-12.31s-21.502 4.103-29.709 12.31c-16.414 16.414-16.414 43.004 0 59.418l138.369 138.377-138.37 138.376c-16.414 16.414-16.414 43.018 0 59.418 16.414 16.414 43.004 16.414 59.418 0l138.368-138.375 138.369 138.375c16.414 16.414 43.004 16.414 59.418 0 16.414-16.401 16.414-43.004 0-59.418l-138.371-138.376 138.371-138.377z"  horiz-adv-x="1024" />

    
    <glyph glyph-name="delete" unicode="&#58917;" d="M612.627 121.298c-17.843 0-32.265 14.421-32.265 32.265v354.961c0 17.843 14.421 32.271 32.265 32.271 17.843 0 32.271-14.428 32.271-32.271v-354.96c0.001-17.844-14.427-32.266-32.271-32.266v0 0zM419.018 121.298c-17.85 0-32.271 14.421-32.271 32.265l-0 354.961c0 17.843 14.421 32.271 32.271 32.271 17.843 0 32.265-14.428 32.265-32.271v-354.96c0-17.844-14.421-32.266-32.265-32.266v0 0zM935.316 669.868h-161.345v64.537c0 53.374-43.078 96.808-96.064 96.808l-323.433-0c-53.368 0-96.802-43.433-96.802-96.808v-64.537h-161.345c-17.85 0-32.271-14.421-32.271-32.271 0-17.843 14.421-32.265 32.271-32.265h838.987c17.843 0 32.271 14.421 32.271 32.265 0.001 17.85-14.427 32.271-32.271 32.271v0 0zM322.21 734.404c0 17.781 14.486 32.271 32.265 32.271h323.433c17.688 0 31.528-14.167 31.528-32.271v-64.537h-387.226v64.537zM741.834-72.317h-451.832c-53.369 0-96.803 43.433-96.803 96.808v484.516c0 17.814 14.457 32.27 32.267 32.27 17.814 0 32.27-14.456 32.27-32.27v-484.516c0-17.814 14.487-32.271 32.267-32.271h451.831c17.81 0 32.267 14.457 32.267 32.271v483.196c0 17.81 14.427 32.267 32.27 32.267 17.844 0 32.271-14.457 32.271-32.267v-483.196c0-53.374-43.439-96.808-96.808-96.808v0 0z"  horiz-adv-x="1024" />

    
    <glyph glyph-name="jiekouguanli" unicode="&#59222;" d="M512.037-66c-248.55 0-450.038 201.45-450.038 449.962 0 248.55 201.487 450.038 450.038 450.038 248.475 0 449.962-201.487 449.962-450.038 0-248.512-201.487-449.962-449.962-449.962M512.037 764.963c-210.488 0-381.075-170.588-381.075-380.963 0-210.412 170.588-381 381.075-381 210.3 0 380.887 170.588 380.887 380.925 0 210.488-170.588 381.038-380.887 381.038zM713.234 282.609h-327.059l70.489-72.035c12.41-12.622 12.41-33.223 0-45.879-12.445-12.622-32.52-12.622-44.93 0l-119.777 122.344c-1.266 1.301-1.828 2.742-2.708 4.114-6.222 5.836-10.266 13.922-10.266 23.203 0 17.508 14.203 31.781 31.747 31.781h402.503c17.508 0 31.781-14.273 31.781-31.781 0-17.543-14.203-31.747-31.781-31.747v0 0zM713.234 430.934h-402.503c-17.543 0-31.746 14.239-31.746 31.746 0 17.543 14.203 31.852 31.747 31.852h325.828l-69.222 69.117c-12.445 12.445-12.445 32.589 0 44.93 12.375 12.445 32.484 12.445 44.964 0l119.742-119.848c0.633-0.598 0.738-1.372 1.372-2.004 6.925-5.872 11.602-14.309 11.602-24.117 0.070-17.438-14.203-31.675-31.781-31.675v0 0z"  horiz-adv-x="1024" />

    
    <glyph glyph-name="close" unicode="&#59052;" d="M472.225 384l-153.124 153.124c-10.984 10.984-10.984 28.792 0 39.775s28.792 10.984 39.775 0l153.124-153.124 153.124 153.124c10.984 10.984 28.792 10.984 39.775 0s10.984-28.792 0-39.775l-153.124-153.124 153.124-153.124c10.984-10.984 10.984-28.792 0-39.775s-28.792-10.984-39.775 0l-153.124 153.124-153.124-153.124c-10.984-10.984-28.792-10.984-39.775 0s-10.984 28.792 0 39.775l153.124 153.124zM512-9.75c217.463 0 393.75 176.287 393.75 393.75s-176.287 393.75-393.75 393.75c-217.463 0-393.75-176.287-393.75-393.75 0-217.463 176.287-393.75 393.75-393.75v0 0 0 0 0 0 0 0zM512-66v0c-248.528 0-450 201.472-450 450s201.472 450 450 450c248.528 0 450-201.472 450-450 0-248.528-201.472-450-450-450v0 0 0 0 0 0 0 0z"  horiz-adv-x="1024" />

    
    <glyph glyph-name="youjiantou" unicode="&#58997;" d="M776.236522 429.679304 330.48487 875.430957c-23.774609 23.730087-62.19687 23.730087-85.971478 0-23.730087-23.685565-23.730087-62.19687 0-85.971478l402.743652-402.788174-402.743652-402.743652c-23.730087-23.774609-23.730087-62.19687 0-85.971478 11.842783-11.887304 27.38087-17.808696 42.963478-17.808696 15.582609 0 31.120696 5.921391 43.008 17.808696l445.751652 445.751652C799.966609 367.437913 799.966609 405.904696 776.236522 429.679304z"  horiz-adv-x="1024" />

    
    <glyph glyph-name="weizhangchuli" unicode="&#58953;" d="M734.962046 400.246009c-3.523243 49.718355-23.343661 95.004771-54.152341 130.522706l-33.476439-33.44267-22.578228 22.624277 33.44881 33.426297c-35.516912 30.812773-80.804351 50.638307-130.523729 54.16462l0-47.390333-31.978319 0 0 47.390333c-49.714262-3.52529-94.996584-23.346731-130.511449-54.154387l33.43653-33.44267-22.60995-22.60995-33.43653 33.44267c-30.80868-35.514865-50.632167-80.797188-54.159504-130.512473l47.390333-0.00614-0.016373-31.970132-47.374984 0c8.222265-116.000967 105.214297-207.867258 223.271086-207.867258 118.051673 0 215.038588 91.857081 223.270063 207.849862l-47.405683 0.017396 0.031722 31.961946L734.962046 400.246009zM559.141668 279.339312c0.334621-2.284019 0.514723-4.617158 0.514723-6.992251 0-26.451442-21.516036-47.967478-47.967478-47.967478-26.450419 0-47.967478 21.516036-47.967478 47.967478 0 26.450419 21.517059 47.967478 47.967478 47.967478 12.515035 0 23.920806-4.821819 32.470529-12.698207l112.434745 65.064878 16.016789-27.677363L559.141668 279.339312zM511.689936 288.33622c-8.822946 0-15.989159-7.1744-15.989159-15.989159 0-8.81476 7.166213-15.989159 15.989159-15.989159 8.822946 0 15.989159 7.1744 15.989159 15.989159C527.679096 281.16182 520.512882 288.33622 511.689936 288.33622zM511.999998 895.978511c-282.757922 0-511.978511-229.220588-511.978511-511.978511s229.220588-511.978511 511.978511-511.978511 511.978511 229.220588 511.978511 511.978511S794.75792 895.978511 511.999998 895.978511zM511.689936 128.443603c-141.060713 0-255.82655 114.764813-255.82655 255.82655 0 141.060713 114.764813 255.82655 255.82655 255.82655 141.061736 0 255.82655-114.765837 255.82655-255.82655C767.516486 243.20944 652.751672 128.443603 511.689936 128.443603z"  horiz-adv-x="1024" />

    
    <glyph glyph-name="shijian" unicode="&#59159;" d="M867.449747 738.597204C772.481406 833.369718 646.360911 885.661357 512.100863 885.661357 377.889467 885.661357 251.721535 833.369718 156.851716 738.548551c-94.920904-94.871035-147.187001-220.989098-147.187001-355.200494-0.024326-134.212612 52.217444-260.379327 147.114022-355.297799 94.869819-94.822383 221.037751-147.016717 355.22482-147.016717 134.261265 0 260.477849 52.291639 355.446189 147.112806C1063.272156 224.01984100000004 1063.322024 542.6750569999999 867.449747 738.597204L867.449747 738.597204 867.449747 738.597204zM821.142357 74.45373600000005c-82.606972-82.557104-192.38998-128.03132-309.1388-128.03132-116.675841 0-226.434522 45.474216-308.942974 127.934015S75.126569 266.599237 75.150895 383.34805700000004c0 116.698951 45.448674 226.433306 127.982668 308.942974C285.667557 774.75083 395.376369 820.175177 512.100863 820.175177c116.74882 0 226.483175-45.424348 309.041495-127.884146C991.45751 521.8773570000001 991.45751 244.720237 821.142357 74.45373600000005L821.142357 74.45373600000005 821.142357 74.45373600000005zM729.214794 260.222119l-173.65271 100.463633L555.562084 634.505315c0 23.105042-18.762812 41.842312-41.890964 41.842312-23.105042 0-41.867854-18.738486-41.867854-41.842312l0-293.049439c0-15.500666 19.302854-28.54925 31.860048-35.710889 3.483514-5.297034 13.024257-10.007806 18.837007-13.342931l172.719799-104.681799c20.01318-11.528195 41.743791-4.659687 53.271986 15.354709S749.279059 248.64527199999998 729.214794 260.222119L729.214794 260.222119 729.214794 260.222119zM729.214794 260.222119"  horiz-adv-x="1024" />

    
    <glyph glyph-name="transport" unicode="&#59230;" d="M655.726 694.874h65.924c21.1 0 30.249-16.674 30.249-30.946v-233.157h61.663v234.843c0 50.174-41.739 90.934-91.918 90.934h-65.918c-10.068 0-18.188-14.337-18.188-30.838 0-16.664 8.118-30.834 18.188-30.834v0 0zM231.38 609.432c0-22.574 20.164-42.728 42.728-42.728h357.225c22.415 0 42.733 20.155 42.733 42.728 0 22.574-20.159 40.757-42.733 40.757h-69.816v88.493c0 35.887-29.065 64.953-64.953 64.953h-87.682c-35.883 0-64.948-29.065-64.948-64.953v-88.493h-69.826c-22.564-0.005-42.728-18.183-42.728-40.757v0 0zM452.725 767.1c23.708 0 43.035-19.321 43.035-43.037 0-23.703-19.327-43.025-43.035-43.025-23.704 0-43.027 19.323-43.027 43.025 0 23.714 19.322 43.037 43.027 43.037v0 0zM492.92 483.061h-222.762c-22.564 0-40.75-18.188-40.75-40.757s18.188-40.754 40.75-40.754h157.833c26.967 16.107 8.424 68.684 64.93 81.51v0 0zM621.471 387.906h-136.335l-3.32-15.335-22.659-104.806h39.67l17.582 81.308h334.793l17.578-81.308h39.664l-25.974 120.141h-261zM910.411 248.273l-1.964 9.062h-449.29l-1.969-9.157-20.974-51.419v-154.005h18.479v-78.022h96.496v78.022h267.85v-78.022h96.501v78.022h17.564v154l-22.692 51.519zM503.565 118.398c-20.138 0-36.451 16.291-36.451 36.428 0 20.138 16.314 36.452 36.451 36.452 20.138 0 36.452-16.314 36.452-36.452 0-20.137-16.314-36.428-36.452-36.428v0 0zM684.658 199.854l0.829-3.1h-1.654l0.824 3.1zM782.757 90.5h-198.66v80.594h198.66v-80.594zM858.159 118.398c-20.123 0-36.437 16.291-36.437 36.428 0 20.138 16.314 36.452 36.437 36.452 20.138 0 36.452-16.314 36.452-36.452 0-20.137-16.314-36.428-36.452-36.428v0 0zM152.564 659.977c0 21.173 15.278 34.903 31.239 34.903h66.57c10.077 0 18.19 13.324 18.19 30.832 0 17.342-8.114 30.834-18.19 30.834h-66.57c-50.174-0.001-92.907-44.711-92.907-94.885v-606.368c0-50.178 40.757-90.928 90.928-90.928h224.567v61.504h-216.13c-20.31 0-37.697 18.892-37.697 40.226 0 13.447 0 593.88 0 593.88z"  horiz-adv-x="1024" />

    
    <glyph glyph-name="zhengchang" unicode="&#59004;" d="M934.471 43.821h-62.278c-13.757 0-24.911 10.802-24.911 24.559s11.154 24.559 24.911 24.559h38.071v199.545h-224.906c-13.757 0-24.911 11.314-24.911 25.071s11.154 25.071 24.911 25.071h249.113c13.757 0 24.912-9.899 24.912-23.657v-249.113c0-13.758-11.155-26.036-24.911-26.036zM722.724 43.821h-62.278c-13.757 0-24.911 10.802-24.911 24.559s11.154 24.559 24.911 24.559h62.278c13.757 0 24.911-10.802 24.911-24.559s-11.154-24.559-24.911-24.559zM959.381 335.695h-49.822c0 112.365-91.416 203.782-203.779 203.782v49.822c139.834 0 253.601-113.767 253.601-253.604zM685.357 44.945h-344.275c-13.757 0-24.911 11.154-24.911 24.911s11.154 24.911 24.911 24.911h319.328l-0.864 572.959h-545.591v-572.959h73.177c13.757 0 24.911-11.154 24.911-24.911s-11.154-24.911-24.911-24.911h-98.088c-13.757 0-24.911 11.154-24.911 24.911v622.782c0 13.757 11.154 24.911 24.911 24.911h595.377c13.745 0 24.893-11.129 24.911-24.875l0.936-622.782c0.012-6.611-2.609-12.957-7.286-17.638-4.67-4.68-11.014-7.31-17.625-7.31zM264.937-20.036c-55.722 0-101.050 45.331-101.050 101.054 0 55.719 45.328 101.050 101.050 101.050s101.057-45.331 101.057-101.050c0-55.723-45.335-101.054-101.057-101.054zM264.937 132.244c-28.244 0-51.228-22.98-51.228-51.228 0-28.247 22.983-51.231 51.228-51.231 28.25 0 51.234 22.983 51.234 51.231 0 28.247-22.983 51.228-51.234 51.228zM797.927-20.036c-55.722 0-101.050 45.331-101.050 101.054 0 55.719 45.328 101.050 101.050 101.050s101.050-45.331 101.050-101.050c-0.001-55.723-45.329-101.054-101.050-101.054zM797.927 132.244c-28.244 0-51.228-22.98-51.228-51.228 0-28.247 22.983-51.231 51.228-51.231 28.244 0 51.228 22.983 51.228 51.231-0.001 28.247-22.984 51.228-51.228 51.228z"  horiz-adv-x="1024" />

    
    <glyph glyph-name="guanlian" unicode="&#59252;" d="M248.41955555 320l-160 0L88.41955555 704l512 0 0-384-96 0c-17.664 0-32-14.336-32-32S486.75555555 256 504.41955555 256l96 0c35.392 0 64 28.608 64 64L664.41955555 704c0 35.392-28.608 64-64 64l-512 0c-35.392 0-64-28.608-64-64l0-384c0-35.392 28.608-64 64-64l160 0c17.664 0 32 14.336 32 32S266.14755555 320 248.41955555 320zM920.41955555 512l-160 0c-17.664 0-32-14.336-32-32S742.75555555 448 760.41955555 448l160 0 0-384-512 0L408.41955555 448l96 0c17.664 0 32 14.336 32 32S522.14755555 512 504.41955555 512l-96 0c-35.392 0-64-28.608-64-64l0-384c0-35.392 28.608-64 64-64l512 0c35.392 0 64 28.608 64 64L984.41955555 448C984.41955555 483.392 955.81155555 512 920.41955555 512z"  horiz-adv-x="1024" />

    
    <glyph glyph-name="feiyongjiesuandan" unicode="&#58933;" d="M243.332583 301.995251l582.695163 0 0-53.428321L243.332583 248.566929 243.332583 301.995251 243.332583 301.995251 243.332583 301.995251 243.332583 301.995251zM241.912761 97.026872l582.690164 0 1.349831-57.292838L243.332583 39.734033 241.912761 97.026872 241.912761 97.026872 241.912761 97.026872 241.912761 97.026872zM556.588426 511.644044l269.44032 0 0-54.308211L556.588426 457.335833 556.588426 511.644044 556.588426 511.644044 556.588426 511.644044 556.588426 511.644044zM614.48019 721.426822l211.547557 0 0-55.320085L614.48019 666.106737 614.48019 721.426822 614.48019 721.426822 614.48019 721.426822 614.48019 721.426822zM874.647669-128 167.695038-128c-46.589176 0-84.441445 39.750031-84.441445 88.508936L83.253593 807.491064C83.253593 856.249969 121.105862 896 167.695038 896l706.952631 0c46.589176 0 84.439445-39.750031 84.439445-88.508936l0-846.917135C959.087114-88.249969 921.166854-128 874.647669-128L874.647669-128 874.647669-128 874.647669-128zM156.794401 842.436695c-9.548806 0-17.539808-10.023747-17.539808-21.807274l0-873.258843c0-11.853518 8.058993-21.807274 17.539808-21.807274l728.821897 0c9.548806 0 17.537808 10.023747 17.537808 21.807274L903.154106 820.629421c0 11.850519-8.058993 21.807274-17.537808 21.807274L156.794401 842.436695 156.794401 842.436695 156.794401 842.436695 156.794401 842.436695zM470.519185 567.377078c7.651044-13.070366 11.580552-28.376453 11.580552-45.914261 0-26.816648-7.991001-49.225847-23.972003-67.108611-16.049994-17.874766-39.072116-28.503437-69.341332-31.686039l0-45.981252-38.462192 0 0 45.776278c-50.313711 5.214348-81.529809 34.467692-93.515311 87.75603l59.51956 15.578053c5.486314-33.52081 23.702037-50.313711 54.71816-50.313711 14.488189 0 25.188851 3.589551 32.027997 10.768654 6.839145 7.241095 10.293713 15.84302 10.293713 26.00175 0 10.56368-3.454568 18.484689-10.293713 23.83702-6.771154 5.419323-22.007249 12.253468-45.504312 20.584427-21.129359 7.379078-37.720285 14.628171-49.635796 21.872266-11.850519 7.111111-21.534308 17.132858-28.981377 30.063242-7.449069 12.935383-11.105612 28.036495-11.105612 45.101362 0 22.47919 6.701162 42.79665 19.909511 60.739408 13.338333 18.012748 34.122735 29.051369 62.634171 33.045869l0 35.482565 38.462192 0 0-35.482565c42.999625-5.149356 70.901137-29.456318 83.631546-72.995876l-53.160355-21.804274c-10.358705 29.858268-26.271716 44.826397-48.010999 44.826397-10.833646 0-19.569554-3.319585-26.068741-10.023747-6.634171-6.701162-9.953756-14.763155-9.953756-24.24197 0-9.68079 3.179603-17.064867 9.548806-22.277215 6.364204-5.146357 19.904512-11.580552 40.761905-19.164604 22.822147-8.330959 40.834896-16.31996 53.768279-23.632046C452.373453 590.736158 462.665167 580.445444 470.519185 567.377078L470.519185 567.377078 470.519185 567.377078 470.519185 567.377078z"  horiz-adv-x="1024" />

    
    <glyph glyph-name="frequency" unicode="&#58887;" d="M886.85 800 201.151 800C160.743 800 128 767.249 128 726.849L128 416l64 0L192 699.418C192 719.622 208.366 736 228.582 736l630.835 0C879.622 736 896 719.634 896 699.418l0-630.835C896 48.378 879.635 32 859.417 32L228.582 32C208.378 32 192 48.365 192 68.583L192 290.286l195.604 0 37.729 112.688 53.409-216.614c5.104-20.71 20.881-27.991 33.884-27.983 12.379 0.289 28.328 8.2 32.538 29.541l64.084 324.709 47.425-191.485L800 321.142c17.673 0 32 14.327 32 32 0 17.674-14.327 32-32 32l-93.244 0-67.781 273.673c-5.224 21.105-21.496 28.249-33.899 27.952-12.372-0.296-28.315-8.211-32.524-29.543l-64.015-324.361L463.257 516.5c-4.916 19.941-20.401 27.575-32.167 28.053-11.788 0.478-27.818-5.875-34.334-25.345l-55.217-164.922L64 354.286l0-64 64 0L128 41.15c0-40.407 32.751-73.15 73.151-73.15L886.85-32c40.407 0 73.15 32.751 73.15 73.15L960 726.849C960 767.257 927.249 800 886.85 800z"  horiz-adv-x="1024" />

    
    <glyph glyph-name="shortage" unicode="&#58913;" d="M813.020 429.819c-24.934 24.827-65.638 24.827-90.466 0l-210.554-210.554-210.554 210.554c-24.827 24.827-65.532 24.827-90.466 0-24.827-24.827-24.827-65.532 0-90.466l253.709-253.709c0.639-0.746 1.279-1.385 2.025-2.131 12.467-12.467 28.877-18.647 45.286-18.647 16.41 0 32.819 6.18 45.286 18.647 0.746 0.746 1.385 1.385 2.025 2.131l253.709 253.709c24.827 24.934 24.827 65.638 0 90.466zM512 384.533c35.163 0 63.933 28.77 63.933 63.933v127.867c0 35.163-28.77 63.933-63.933 63.933s-63.933-28.77-63.933-63.933v-127.867c0-35.163 28.77-63.933 63.933-63.933z"  horiz-adv-x="1024" />

    
    <glyph glyph-name="locate" unicode="&#58891;" d="M512-128c-254.464 0-512 60.096-512 174.976 0 79.616 116.8 122.88 214.784 145.152 16.64 3.776 33.344-6.656 37.12-23.36 3.84-16.768-6.656-33.344-23.36-37.12-122.176-27.776-166.528-65.728-166.528-84.608 0-38.336 158.784-113.024 449.92-113.024s449.92 74.688 449.92 113.024c0 13.888-28.16 47.744-134.72 76.736-16.512 4.48-26.24 21.504-21.824 38.016 4.48 16.64 21.568 26.368 38.080 21.888 118.144-32.192 180.608-79.424 180.608-136.704 0-114.88-257.536-174.976-512-174.976zM520.128 6.72c-8.32 0-16.32 3.328-22.144 9.28-89.28 91.136-216.64 240.64-275.264 333.248-39.616 62.592-59.648 128.448-59.648 195.712 0 193.536 157.824 351.040 351.68 351.040 193.92 0 351.68-157.504 351.68-351.040 0-64.768-19.968-130.368-59.328-195.072-58.112-95.616-122.24-176.512-264-332.992-5.76-6.272-13.824-9.984-22.4-10.112-0.128-0.064-0.384-0.064-0.576-0.064zM514.752 833.92c-159.68 0-289.6-129.6-289.6-289.024 0-55.36 16.896-110.080 50.048-162.56 50.816-80.32 160.704-210.944 244.16-299.136 123.392 137.28 182.016 212.16 234.752 298.88 33.792 55.552 50.24 108.8 50.24 162.816 0 159.424-129.92 289.024-289.6 289.024zM514.752 388.48c-87.808 0-159.296 71.296-159.296 159.040 0 87.68 71.488 159.040 159.296 159.040 87.872 0 159.296-71.36 159.296-159.040 0-87.68-71.424-159.040-159.296-159.040zM514.752 644.544c-53.632 0-97.28-43.52-97.28-97.024s43.648-96.96 97.28-96.96 97.28 43.52 97.28 97.024-43.648 96.96-97.28 96.96z"  horiz-adv-x="1025" />

    
    <glyph glyph-name="sort" unicode="&#59185;" d="M824.557 374.927l-162.497-199.997v544.201h-0.182c-1.894 20.086-18.8 35.804-39.381 35.804s-37.487-15.718-39.381-35.804h-0.182v-651.87l0.186 0.044c-0.12-1.252-0.186-2.52-0.186-3.803 0-21.849 17.713-39.563 39.563-39.563 12.351 0 23.378 5.663 30.633 14.531l0.004-0.003 232.66 286.356-61.237 50.105zM385.119 754.935c-12.349 0-23.376-5.662-30.631-14.529l-0.004 0.003-232.663-286.356 61.238-50.105 162.497 199.994v-544.199h0.182c1.893-20.087 18.799-35.806 39.381-35.806s37.488 15.719 39.381 35.806h0.182v656.587l-0.024-0.007c-0.508 21.409-18.010 38.612-39.54 38.612z"  horiz-adv-x="1024" />

    
    <glyph glyph-name="export" unicode="&#58994;" d="M277.867 453.866l48.001 62.4-92.8 92.8h62.399c212.8 0 187.2-265.6 187.2-265.6h78.4c0 345.6-265.6 344-265.6 344h-62.399l92.8 76.8-48.001 62.4-187.199-185.6 187.2-187.2zM277.867 453.866zM953.599 388.8c0 244.8-198.4 443.2-443.2 443.2-19.199 0-36.8-1.6-56-3.2l38.399-75.2c0 0 1.599 0 1.599 0 209.601 0 377.6-171.2 380.8-380.8 3.2-171.2-140.8-339.2-350.4-350.4-209.6-11.2-380.8 171.2-380.8 382.4 0 1.599 0 3.2 0 4.8l-73.6 48c-3.2-22.4-6.4-44.8-6.4-67.2 0-244.8 198.4-444.8 444.8-444.8s452.8 176 444.8 443.2v0zM953.599 388.8z"  horiz-adv-x="1024" />

    
    <glyph glyph-name="import" unicode="&#58995;" d="M721.067 446.4l-49.6 60.801-112-68.8 14.4 59.2c49.6 208 300.8 121.6 300.8 121.6l17.6 76.8c-335.999 80-395.2-177.6-395.2-177.6l-14.4-59.2-52.8 108.8-72-32 139.2-225.6 52.8 32 4.8 3.2 166.4 100.8zM721.067 446.4zM513.599-47.467c244.8 0 443.2 200 443.2 444.8 0 19.199-1.6 36.8-3.2 56l-75.2-38.399c0 0 0-1.599 0-1.599 0-211.2-171.2-379.2-382.4-382.4-171.2-3.2-339.2 140.8-350.4 350.4-11.201 211.2 171.2 382.4 382.4 382.4 1.599 0 3.2 0 4.8 0l48 73.6c-22.4 3.2-44.8 6.4-67.2 6.4-244.8 0-444.8-198.4-444.8-444.8s177.6-452.8 444.801-446.4v0zM513.599-47.467z"  horiz-adv-x="1024" />

    
    <glyph glyph-name="column-set" unicode="&#58899;" d="M912.617 187.712l-31.744-55.424c-8.768-15.328-28.16-20.544-43.36-11.712l-88.16 51.328c-44.736-50.912-105.248-87.392-173.92-101.472v-70.432c0-17.696-14.176-32-31.712-32h-63.488c-17.536 0-31.712 14.304-31.712 32v70.432c-68.672 14.080-129.184 50.56-173.92 101.472l-88.16-51.328c-15.2-8.832-34.592-3.616-43.36 11.712l-31.744 55.424c-8.768 15.296-3.552 34.88 11.616 43.68l88.512 51.584c-10.528 31.808-16.832 65.632-16.832 101.024 0 35.392 6.304 69.184 16.832 101.024l-88.512 51.552c-15.168 8.832-20.384 28.384-11.616 43.712l31.744 55.424c8.768 15.296 28.16 20.544 43.36 11.712l88.16-51.328c44.736 50.912 105.248 87.392 173.92 101.472v70.432c0 17.696 14.176 32 31.712 32h63.488c17.536 0 31.712-14.304 31.712-32v-70.432c68.672-14.080 129.184-50.56 173.92-101.472l88.16 51.328c15.2 8.832 34.592 3.584 43.36-11.712l31.744-55.424c8.768-15.328 3.552-34.88-11.616-43.712l-88.512-51.552c10.528-31.84 16.832-65.632 16.832-101.024 0-35.392-6.304-69.216-16.832-101.024l88.512-51.584c15.168-8.8 20.384-28.384 11.616-43.68v0zM960.233 270.848l-74.336 43.264c4.16 22.72 6.912 45.92 6.912 69.888 0 23.936-2.752 47.168-6.912 69.888l74.336 43.264c30.368 17.664 40.736 56.832 23.2 87.424l-63.456 110.848c-17.504 30.592-56.352 41.12-86.688 23.424l-75.104-43.68c-35.072 30.080-74.944 54.688-119.264 70.528v54.304c0 35.328-28.416 64-63.488 64h-126.912c-35.072 0-63.488-28.672-63.488-64v-54.304c-44.32-15.84-84.192-40.448-119.264-70.528l-75.104 43.68c-30.336 17.696-69.184 7.168-86.688-23.424l-63.456-110.848c-17.536-30.592-7.136-69.76 23.2-87.424l74.336-43.264c-4.16-22.72-6.912-45.952-6.912-69.888 0-23.968 2.752-47.168 6.912-69.888l-74.336-43.264c-30.336-17.664-40.736-56.832-23.2-87.424l63.456-110.848c17.504-30.592 56.352-41.12 86.688-23.424l75.104 43.68c35.072-30.080 74.944-54.72 119.264-70.528v-54.304c0-35.328 28.416-64 63.488-64h126.912c35.072 0 63.488 28.672 63.488 64v54.304c44.32 15.808 84.192 40.448 119.264 70.528l75.104-43.68c30.336-17.696 69.184-7.168 86.688 23.424l63.456 110.848c17.536 30.592 7.168 69.76-23.2 87.424v0zM511.977 288c-52.576 0-95.2 42.976-95.2 96 0 52.992 42.624 96 95.2 96 52.576 0 95.2-43.008 95.2-96 0-53.024-42.624-96-95.2-96v0zM511.977 544c-87.648 0-158.656-71.616-158.656-160s71.008-160 158.656-160c87.648 0 158.688 71.616 158.688 160 0 88.384-71.040 160-158.688 160v0z"  horiz-adv-x="1024" />

    
    <glyph glyph-name="save" unicode="&#58998;" d="M659.486 517.948l-206.643-206.644-91.726 91.748c-13.264 13.264-34.789 13.264-48.010 0-13.306-13.264-13.306-34.79 0-48.032l115.752-115.774c6.632-6.632 15.308-9.97 23.985-9.97s17.394 3.338 24.027 9.97l230.67 230.65c13.265 13.264 13.265 34.767 0 48.053-13.265 13.264-34.789 13.242-48.054-0.001v0zM659.486 517.948zM510.282-91.242c-261.788 0-469.852 208.061-469.852 469.851 0 261.788 208.062 469.851 469.852 469.851 261.788 0 469.852-208.062 469.852-469.851 0-261.788-208.063-469.851-469.852-469.851v0 0zM510.282 794.732c-228.21 0-409.449-187.915-409.449-409.409s187.957-409.45 409.449-409.45c221.494 0 409.449 187.957 409.449 409.45s-181.241 409.409-409.449 409.409v0 0z"  horiz-adv-x="1027" />

    
    <glyph glyph-name="tishi" unicode="&#58949;" d="M512.001-26.323c226.226 0 409.619 183.376 409.619 409.619 0 226.208-183.394 409.619-409.619 409.619s-409.619-183.411-409.619-409.619c0-226.242 183.393-409.619 409.619-409.619zM512.001 602.619c26.384 0 47.76-21.36 47.76-47.666 0-26.309-21.376-47.632-47.76-47.632s-47.777 21.321-47.777 47.632c0 26.306 21.394 47.666 47.778 47.666zM464.223 396.135c0 26.308 21.395 47.647 47.777 47.647s47.76-21.341 47.76-47.647v-222.377c0-26.308-21.376-47.632-47.76-47.631s-47.777 21.323-47.777 47.631v222.377z"  horiz-adv-x="1024" />

    
    <glyph glyph-name="kaiguan" unicode="&#58976;" d="M938.269453 495.843274c-14.543228 34.231639-35.33067 65.002456-61.787228 91.459015s-57.227376 47.244001-91.457991 61.787228c-35.507702 15.084557-73.137741 22.733771-111.844298 22.733771l-322.361919 0c-38.706557 0-76.336596-7.649214-111.844298-22.733771-34.230616-14.543228-65.001433-35.33067-91.457991-61.787228s-47.244001-57.227376-61.787228-91.459015c-15.084557-35.506678-22.733771-73.136717-22.733771-111.843274s7.649214-76.336596 22.733771-111.843274c14.543228-34.231639 35.33067-65.002456 61.787228-91.459015s57.227376-47.244001 91.457991-61.787228c35.507702-15.084557 73.137741-22.733771 111.844298-22.733771l322.361919 0c38.706557 0 76.336596 7.649214 111.844298 22.733771 34.230616 14.543228 65.001433 35.33067 91.457991 61.787228s47.244001 57.227376 61.787228 91.459015c15.084557 35.506678 22.733771 73.136717 22.733771 111.843274S953.355033 460.336596 938.269453 495.843274zM673.180959 160.137443l-322.361919 0c-123.438357 0-223.862557 100.4242-223.862557 223.862557s100.4242 223.862557 223.862557 223.862557l322.361919 0c123.438357 0 223.862557-100.4242 223.862557-223.862557S796.619316 160.137443 673.180959 160.137443zM350.819041 543.901827c-88.170109 0-159.901827-71.731718-159.901827-159.901827s71.731718-159.901827 159.901827-159.901827 159.901827 71.731718 159.901827 159.901827S438.989149 543.901827 350.819041 543.901827zM350.819041 288.058904c-52.901861 0-95.941096 43.039235-95.941096 95.941096s43.039235 95.941096 95.941096 95.941096 95.941096-43.039235 95.941096-95.941096S403.720901 288.058904 350.819041 288.058904z"  horiz-adv-x="1024" />

    
    <glyph glyph-name="details" unicode="&#58892;" d="M814.121 831.021h-604.325c-53.612 0-97.195-43.529-97.195-97.141v-700.154c0-53.611 43.584-97.195 97.195-97.195h604.326c53.557 0 97.168 43.585 97.223 97.195l0 700.154c-0.001 53.613-43.668 97.141-97.224 97.141zM856.558 33.725c0-23.444-19.046-42.463-42.437-42.463h-604.325c-23.39 0-42.408 19.019-42.408 42.463l-0 700.154c0 23.392 19.018 42.464 42.408 42.464h604.326c23.39 0 42.437-19.072 42.437-42.464l0-700.154zM266.094 414.632h52.829v-54.545h-52.829v54.545zM266.094 618.242h52.829v-54.544h-52.829v54.544zM266.094 211.022h52.829v-54.492h-52.829v54.492zM361.513 211.022h399.378v-54.492h-399.378v54.492zM361.513 414.632h399.378v-54.545h-399.378v54.545zM361.513 618.242h399.378v-54.544h-399.378v54.544z"  horiz-adv-x="1024" />

    
    <glyph glyph-name="basicSetting" unicode="&#58905;" d="M351.573 482.775h320.853v-81.92h-320.853v81.92zM351.573 619.309h320.853v-81.92h-320.853v81.92zM351.573 346.242h183.467v-81.92h-183.467v81.92zM921.6 215.709c-27.949 46.578-27.498 47.459-27.498 47.459s-96.481-27.054-114.449 65.427h-55.897c0 0-15.414-92.624-113.991-65.201-28.501-47.5-29.471-48.988-29.498-49.015 0.041-0.028 77.162-53.91 0-127.085l29.949-49.241c0 0 85.197 36.755 113.104-63.652h56.559c0 0 17.743 92.269 113.555 64.99 27.279 46.572 27.723 47.022 27.723 47.022s-72.335 62.355 0.444 129.297v0zM750.49 86.295c-36.004 0-65.209 29.19-65.209 65.209s29.198 65.215 65.209 65.215c36.011 0 65.215-29.198 65.215-65.215s-29.204-65.209-65.215-65.209v0zM293.28 55.917c-30.202 0-54.682 24.48-54.682 54.682v546.802c0 30.202 24.48 54.682 54.682 54.682h437.439c30.208 0 54.682-24.48 54.682-54.682v-290.468h67.932v358.4c0 37.703-30.563 68.267-68.267 68.267h-546.133c-37.703 0-68.267-30.563-68.267-68.267v-682.667c0-37.697 30.563-68.267 68.267-68.267h314.027v81.517h-259.68z"  horiz-adv-x="1024" />

    
    <glyph glyph-name="unlock" unicode="&#59025;" d="M476.602 102.035c-29.481 0-53.422 24.543-53.422 54.795v54.785c0 30.272 23.931 54.795 53.422 54.795 29.491 0 53.422-24.523 53.422-54.795v-54.785c0-30.222-23.931-54.795-53.422-54.795v0zM809.462 343.457c0 30.084-24.553 54.449-54.795 54.449l-547.911-0c-30.242 0-54.795-24.365-54.795-54.449v-326.686c0-30.054 24.553-54.449 54.795-54.449h547.911c30.242 0 54.795 24.395 54.795 54.449v326.686zM782.094-119.872h-602.736c-60.514 0-109.58 48.928-109.58 109.284v382.479c0 50.844 35.012 93.215 82.193 105.432v85.867c0 181.047 147.2 327.842 328.76 327.842 129.748 0 241.62-75.18 295.091-184.030l-0.227-0.109c3.783-6.202 6.499-13.037 6.499-20.82 0-22.627-18.41-40.978-41.096-40.978-15.012 0-27.585 8.444-34.765 20.435l-1.205-0.681c-38.795 84.988-124.543 144.227-224.326 144.227-136.188 0-246.568-110.074-246.568-245.877v-82.015h547.941c60.523 0 109.58-48.928 109.58-109.284v-382.479c0.020-60.356-49.047-109.294-109.56-109.294v0z"  horiz-adv-x="1024" />

    
    <glyph glyph-name="baoxian" unicode="&#58954;" d="M508.886591 632.385067c-153.025209 0-277.978059-126.127605-278.471292-281.19431 0.243547-14.467503 11.746532-25.839505 25.720801-25.839505 12.921287 0 23.861454 9.642614 25.406646 22.440082 1.549286 12.675694 12.369725 22.193465 25.166169 22.193465 12.740162 0 23.555485-9.518794 25.103748-22.193465 1.604544-12.797467 12.550851-22.440082 25.472138-22.440082 12.491499 0 23.125697 8.839319 25.287943 21.081131 2.165316 12.114922 12.674671 20.897959 24.919553 20.897959 12.238742 0 22.751167-8.783037 24.913413-20.897959 2.163269-12.241812 12.797467-21.081131 25.287943-21.081131 13.908778 0 25.472138 11.372002 25.595958 25.221428 0.249687 13.849426 11.497868 24.979928 25.348318 24.979928 13.849426 0 25.102724-11.070126 25.352411-24.920576 0-0.309038 0-0.552585 0-0.801249l0.060375 0c0-0.121773 0-0.245593-0.060375-0.305969 0.865717-13.418614 12.114922-24.174586 25.720801-24.174586 12.735046 0 23.61893 9.518794 25.348318 22.131043 1.728364 12.735046 13.291724 22.502503 25.472138 21.947871 12.736069-0.184195 23.433712-9.827833 24.855084-22.505573 1.423419-12.983709 12.368702-22.750143 25.472138-22.750143 12.552897 0 23.432689 9.274224 25.352411 21.638833 1.979074 12.366655 12.552897 21.455661 25.038256 21.455661 12.488429 0 23.125697-9.089006 25.042349-21.455661 1.918699-12.304234 12.798491-21.638833 25.348318-21.638833 14.159488 0 25.659403 11.501962 25.659403 25.657356 0 1.115404-0.062422 2.227738-0.184195 3.402493C783.649422 508.482129 658.943189 632.385067 508.886591 632.385067zM508.886591 894.659469C229.179145 894.659469 2.393002 667.873326 2.393002 388.164856s226.786143-506.494613 506.493589-506.494613c279.70847 0 506.494613 226.786143 506.494613 506.494613S788.595061 894.659469 508.886591 894.659469zM761.639129 273.537166c-19.290345 0-36.97103 7.049556-50.390667 18.796088-27.267017-23.808242-74.747401-23.369244-101.706403 0.98749-20.031219-17.311271-50.263777-21.455661-75.55172-13.167904l0.060375-154.013723c0-55.645344-45.322232-100.967576-101.026928-100.967576-55.706743 0-100.964506 45.322232-100.964506 100.967576L382.635165 126.139118c0-27.765367 22.630417-50.327222 50.388621-50.327222 27.761274 0 50.327222 22.561855 50.327222 50.327222l-0.060375 154.073074c-25.411763-8.347109-55.894008-4.14132-75.798337 13.232372-27.081799-23.679305-73.825402-23.37129-100.783381 0.433882-13.602809-11.933797-31.344892-19.167548-50.572816-19.167548-41.549302 0-75.738985 33.758871-76.296687 75.18333 0.49221 175.528736 134.474714 318.600245 303.450197 331.829548l0 44.147476 50.634214 0 0-44.147476c166.009941-13.043061 299.927977-153.393599 303.516712-324.472999 0.24764-0.367367 0.491187-3.832282 0.491187-7.41897C837.933769 307.788248 803.681664 273.537166 761.639129 273.537166z"  horiz-adv-x="1024" />

    
    <glyph glyph-name="cancel" unicode="&#58966;" d="M686.523 249.593l-134.402 134.402 134.398 134.398c11.079 11.079 11.079 29.044 0 40.123s-29.044 11.078-40.122-0.001l-134.398-134.397-134.406 134.406c-11.079 11.079-29.043 11.079-40.118 0.002-11.079-11.079-11.079-29.043 0-40.121l134.403-134.402-134.399-134.401c-11.077-11.076-11.073-29.043 0.007-40.121 11.075-11.075 29.044-11.079 40.118-0.005l134.399 134.399 134.402-134.402c11.079-11.079 29.043-11.079 40.121 0 11.079 11.079 11.078 29.040-0.002 40.119v0zM686.523 249.593zM511.999 833.999c-248.209 0-449.996-201.921-449.996-450.003 0-248.076 201.788-449.996 449.996-449.996 248.077 0 449.997 201.921 449.997 449.996 0 248.080-201.856 450.003-449.997 450.003zM511.999-5.959c-215.292 0-390.469 174.983-390.469 389.954-0.005 215.036 175.108 390.024 390.469 390.024 215.23 0 390.406-174.986 390.406-390.023 0-215.027-175.18-389.956-390.406-389.956z"  horiz-adv-x="1024" />

    
    <glyph glyph-name="cardb" unicode="&#58927;" d="M827.389622 703.659367 192.189695 703.659367c-71.761394 0-130.145106-55.656601-130.145106-124.065643l0-65.462944 895.488091 0 0 65.462944C957.533704 648.002766 899.151016 703.659367 827.389622 703.659367zM62.04459 125.65714c0-68.411089 58.382689-124.066667 130.145106-124.066667l635.199926 0c71.761394 0 130.144082 55.656601 130.144082 124.066667L957.533704 387.240811 62.04459 387.240811 62.04459 125.65714zM602.391195 192.812633l186.241728 0c18.650779 0 33.769105-15.118326 33.769105-33.769105s-15.118326-33.769105-33.769105-33.769105l-186.241728 0c-18.650779 0-33.769105 15.118326-33.769105 33.769105S583.740416 192.812633 602.391195 192.812633z"  horiz-adv-x="1024" />

    
    <glyph glyph-name="jiancha" unicode="&#59046;" d="M482.469 160.406v0c-0.703 0-0.703 0-0.703 0-0.703 0-0.703 0-1.406 0l-81.563 2.109c-0.703 0-91.406 0-92.109 0v0 0c-13.359 0-23.906-10.547-23.906-23.906 0-11.25 7.734-20.391 18.281-23.203v0c0.703 0 1.406 0 2.109-0.703 0.703 0 0.703 0 1.406 0 0.703 0 1.406 0 2.109 0h90.703l85.078-2.109c0.703 0 1.406 0 2.109 0h0.703c11.953 1.406 21.094 11.25 21.094 23.906 0 13.359-10.547 23.906-23.906 23.906zM481.766 299.625v0c-0.703 0-0.703 0-1.406 0s-0.703 0-1.406 0h-80.156c-0.703 0-91.406 0-92.109 0v0 0c-13.359 0-23.906-10.547-23.906-23.906 0-11.25 7.734-20.391 18.281-23.203v0c0.703 0 1.406 0 2.109-0.703 0.703 0 0.703 0 1.406 0 0.703 0 1.406 0 2.109 0h175.078c0 0 0 0 0.703 0 13.359 0 23.906 10.547 23.906 23.906 0 13.359-11.25 23.906-24.609 23.906zM305.984 436.734h-0.703c-13.359 0-23.906-10.547-23.906-23.906s10.547-23.906 23.906-23.906h413.438c1.406 0 3.516 0 4.922 0.703v0c11.25 2.109 20.391 11.953 20.391 23.906 0 13.359-10.547 23.906-23.906 23.906h-0.703c-0.703 0-0.703 0-1.406 0l-412.031-0.703c0.703 0 0 0 0 0zM957.781-23.109l-73.828 73.828c20.391 28.828 32.344 63.984 31.641 101.953-2.109 87.891-73.828 160.313-161.719 163.125-97.031 2.813-175.781-75.938-172.266-172.969 2.813-87.891 75.234-159.609 163.125-161.719 37.969-0.703 73.125 10.547 101.953 31.641l73.828-73.828c4.922-4.922 14.063-4.922 18.984 0l18.984 18.984c4.922 4.922 4.922 13.359-0.703 18.984v0zM628.719 148.453c0 68.906 58.359 123.75 127.969 118.828 59.063-4.219 106.875-52.031 110.391-110.391 4.922-69.609-50.625-127.969-118.828-127.969-66.094 0-119.531 53.438-119.531 119.531v0zM569.656-18.188c-151.875 0-360.703 0-376.875 0 0 4.219 0 802.969 0 802.969h412.031v-182.813c0-23.203 16.875-42.891 38.672-47.813 2.813-0.703 9.141-0.703 9.141-0.703h182.109v-185.625h48.516v211.641c0.703 8.438-3.516 18.281-11.25 26.016-0.703 0.703-0.703 0.703-1.406 1.406l-134.297 130.781c-0.703 0-85.078 82.266-85.781 82.969-1.406 1.406-3.516 3.516-5.625 4.922-1.406 1.406-2.813 2.109-4.922 3.516-2.813 1.406-8.438 4.219-14.063 4.219-0.703 0-0.703 0-1.406 0h-294.609c-0.703 0-135.703 0-136.406 0-23.203 0-42.891-16.875-47.813-38.672-0.703-2.813-0.703-6.328-0.703-9.844 0-102.656 0-792.422 0-802.266 0-23.203 16.875-42.891 38.672-47.109 2.813-0.703 6.328-0.703 9.844-0.703h376.172v47.109zM653.328 750.328l155.391-148.359c0 0-142.031 0-155.391 0 0 4.922 0 148.359 0 148.359z"  horiz-adv-x="1025" />

    
    <glyph glyph-name="jiaotongshigu" unicode="&#59005;" d="M942.242 326.618c-6.891 0.651-13.876 0.212-20.81 0.489-9.279 0.371-17.897-0.935-24.501-9.153-0.736 2.097-1.277 3.579-1.776 5.074-10.96 32.893-21.896 65.795-32.878 98.681-7.355 22.024-28.253 37.094-51.359 37.095-90.162 0.004-180.326 0.006-270.488-0.002-23.565-0.002-44.285-14.808-51.757-37.06-7.769-23.131-15.446-46.294-23.168-69.439-4.075-12.213-8.161-24.423-12.414-37.148-1.157 1.443-1.943 2.463-2.767 3.45-3.651 4.373-8.259 7.668-13.901 7.912-10.517 0.457-21.136 0.841-31.589-0.105-8.905-0.805-15.096-6.623-17.704-15.327-2.636-8.802 0.013-16.343 6.841-22.36 4.273-3.766 9.387-5.496 15.082-5.496 7.572 0.001 15.143 0 23.107 0 0-73.433 0-146.316 0-219.517 14.692-1.556 28.858-0.993 42.821 2.725 21.298 5.672 31.82 19.621 31.499 43.994-0.082 6.33-2.46 12.629-3.741 18.744 113.913 0 228.532 0 342.305 0-1.315-6.31-3.582-12.489-3.709-18.711-0.316-15.475 3.45-29.793 17.931-38.221 17.413-10.135 36.646-10.009 56.549-8.678 0 73.413 0 146.37 0 219.721 8.564 0 16.567-0.241 24.549 0.056 12.018 0.447 21.49 10.525 21.289 22.221-0.178 10.55-8.599 20.035-19.409 21.055ZM512.956 318.404c6.615 23.755 13.242 47.505 19.875 71.254 5.378 19.257 21.294 31.333 41.357 31.336 69.43 0.009 138.861 0.008 208.291 0.001 20.085-0.003 36.047-11.892 41.565-31.133 7.826-27.289 15.531-54.612 23.283-81.923 0.214-0.75 0.378-1.513 0.683-2.752-113.02 0-225.551 0-338.611 0 1.228 4.577 2.356 8.907 3.556 13.218ZM512.897 195.305c-19.103-0.056-34.597 14.75-34.576 33.045 0.021 18.178 15.248 32.697 34.353 32.753 19.222 0.054 34.685-14.646 34.629-32.925-0.055-18.041-15.519-32.816-34.406-32.873ZM835.037 195.304c-19.077 0.012-34.539 14.892-34.476 33.18 0.063 18.091 15.442 32.624 34.516 32.617 19.263-0.008 34.533-14.653 34.467-33.056-0.066-18.01-15.601-32.751-34.507-32.739ZM386.148 369.321c0.294 23.714 5.59 45.852 15.275 67.002 0.503 1.101-0.003 2.708-0.173 4.062-0.576 4.562-2.236 9.257-1.633 13.646 1.751 12.753 11.929 21.599 25.272 22.684 2.783 0.227 4.568 1.245 6.425 3.189 20.853 21.842 45.828 36.836 75.021 44.691 4.48 1.205 9.03 2.154 14.2 3.376-7.49 4.483-15.116 2.432-22.406 2.929-7.847 0.534-15.085-0.766-20.542-7.87-0.758 2.146-1.215 3.379-1.627 4.626-8.835 26.702-17.662 53.406-26.496 80.107-6.174 18.663-22.712 30.76-42.308 30.768-73.184 0.032-146.369 0.037-219.552-0.003-19.207-0.01-35.802-12.049-41.885-30.2-4.024-12.008-7.983-24.039-11.964-36.061-5.611-16.947-11.216-33.897-17.056-51.546-4.302 6.742-9.834 10.023-17.048 10.147-6.141 0.106-12.287 0.092-18.428-0.006-5.28-0.084-10.005-1.831-13.667-5.716-5.01-5.315-6.628-11.579-3.893-18.466 2.95-7.432 8.782-11.317 16.677-11.68 6.362-0.292 12.747-0.06 19.565-0.06 0-60.07 0-119.693 0-179.553 11.929-1.379 23.249-0.669 34.501 2.169 14.912 3.763 23.286 13.322 25.545 28.348 1.193 7.937 0.186 15.647-3.905 23.414 77.129 0.001 153.567 0.001 230.105 0.001ZM163.524 516.826c5.918 21.465 11.816 42.937 17.799 64.382 4.753 17.037 17.287 26.467 34.995 26.468 56.096 0.003 112.192 0.007 168.288-0.003 15.826-0.003 29.081-9.688 33.458-24.846 6.547-22.673 12.846-45.415 19.238-68.132 0.104-0.366 0.068-0.772 0.137-1.691-91.604 0-182.926 0-274.713 0 0.282 1.373 0.466 2.618 0.798 3.821ZM137.216 449.585c-0.271 14.758 12.267 27.151 27.672 27.352 15.517 0.203 28.105-11.565 28.378-26.523 0.275-15.036-12.198-27.261-27.95-27.401-15.032-0.132-27.832 11.971-28.101 26.572ZM591.522 539.15c7.254 0.506 12.328 4.468 15.462 11.054 15.919 33.463 31.882 66.907 47.826 100.359 4.588 9.627 9.341 19.18 13.693 28.912 5.049 11.29-1.54 23.128-13.657 24.834-3.554 0.5-7.171 0.552-10.485 0.789-5.094-0.364-9.949-0.332-14.661-1.134-7.86-1.34-15.68-3.006-23.409-4.959-3.196-0.808-6.014-2.606-6.786-6.548-4.764-24.335-9.594-48.658-14.522-72.96-3.946-19.458-8.018-38.891-12.143-58.312-1.06-4.992-0.345-9.564 2.386-13.784 3.805-5.88 9.387-8.734 16.296-8.252ZM626.668 510.812c-4.268-5.954-4.911-12.342-1.651-18.869 3.279-6.564 8.89-9.67 15.219-9.892 6.504 0.075 10.888 2.526 14.669 6.447 24.185 25.083 48.404 50.132 72.607 75.2 0.926 0.959 1.849 1.934 2.665 2.984 8.265 10.61 2.22 26.263-11.025 28.575-6.938 1.211-12.47-1.288-17.242-6.241-24.269-25.188-48.591-50.323-72.886-75.486-0.833-0.862-1.662-1.747-2.358-2.719ZM494.387 599.49c4.831-18.156 9.645-36.317 14.509-54.463 2.383-8.89 8.995-14.259 17.453-14.307 12.027-0.066 20.644 10.738 17.519 22.652-9.127 34.8-18.498 69.535-27.818 104.284-1.47 5.478-4.906 9.489-10.129 11.675-6.56 2.743-12.911 2.005-18.443-2.5-5.645-4.597-7.99-10.773-6.188-17.876 4.195-16.532 8.708-32.982 13.095-49.464Z"  horiz-adv-x="1024" />

    
    <glyph glyph-name="jihuabaifang" unicode="&#59076;" d="M879.552 278.336l-278.4 0c-57.088 0-103.552-46.464-103.552-103.552l0-198.464c0-57.088 46.464-103.552 103.552-103.552l278.4 0c57.088 0 103.552 46.464 103.552 103.552l0 198.464C983.104 231.872 936.64 278.336 879.552 278.336zM912.704-23.744c0-18.24-14.848-33.152-33.152-33.152l-278.4 0c-18.304 0-33.152 14.848-33.152 33.152l0 198.464c0 18.24 14.848 33.152 33.152 33.152l278.4 0c18.304 0 33.152-14.848 33.152-33.152L912.704-23.744zM735.936 55.936l-71.104 0c-19.648 0-35.584-15.872-35.584-35.584s15.872-35.584 35.584-35.584l71.104 0c19.648 0 35.584 15.872 35.584 35.584S755.648 55.936 735.936 55.936zM807.104 166.208l-142.272 0c-19.648 0-35.584-15.872-35.584-35.584 0-19.648 15.872-35.584 35.584-35.584l142.272 0c19.648 0 35.584 15.872 35.584 35.584C842.624 150.336 826.752 166.208 807.104 166.208zM551.936 408.256c82.368 43.2 138.816 129.472 138.816 228.736 0 142.4-115.84 258.304-258.24 258.304-142.4 0-258.304-115.84-258.304-258.304 0-99.392 56.512-185.728 139.072-228.864C189.504 368.64 92.096 269.76 55.168 144.896c-1.344-4.608-2.688-9.344-3.84-14.016-5.952-23.232-8.576-47.36-10.304-71.232-1.408-19.392 13.184-36.288 32.576-37.632 0.896-0.064 1.728-0.064 2.56-0.064 15.872 0 29.632 10.688 33.856 25.664 3.456 12.352 2.944 25.344 4.48 37.952 1.472 12.16 4.032 24.256 7.424 35.968 38.4 135.424 163.072 235.008 310.656 235.008 64.576 0 124.672-19.264 175.232-52.032l109.312 0C672 351.68 615.488 387.84 551.936 408.256zM244.608 636.992c0 103.552 84.288 187.84 187.84 187.84s187.84-84.288 187.84-187.84S536.064 449.216 432.512 449.216 244.608 533.44 244.608 636.992z"  horiz-adv-x="1024" />

    
    <glyph glyph-name="reset" unicode="&#58984;" d="M905.755 191.072c-16.895 10.032-38.631 4.497-48.607-12.31-72.131-121.056-204.402-196.243-345.149-196.243-187.796 0-345.899 129.561-389.547 304.009l51.489-51.461c13.838-13.838 36.268-13.838 50.107 0 13.78 13.838 13.78 36.268-0.058 50.107l-123.91 123.881c-10.090 10.148-25.254 13.147-38.575 7.669-13.262-5.477-21.853-18.394-21.853-32.722 0-260.447 211.898-472.345 472.345-472.345 165.598 0 321.163 88.45 406.037 230.839 9.975 16.807 4.497 38.545-12.282 48.577zM512 856.347c-182.089 0-344.86-101.711-424.719-265.436-8.591-17.585-1.268-38.805 16.317-47.366 17.413-8.591 38.805-1.355 47.339 16.289 67.922 139.189 206.247 225.65 361.062 225.65 187.796 0 345.84-129.561 389.547-303.981l-62.907 62.878c-13.838 13.838-36.21 13.838-50.049 0s-13.838-36.268 0-50.107l135.326-135.326c6.746-6.775 15.798-10.379 25.024-10.379 4.555 0 9.168 0.894 13.55 2.71 13.262 5.477 21.854 18.394 21.854 32.722 0 260.447-211.898 472.345-472.345 472.345zM511.885 643.294c-86.316 0-156.487-68.672-156.487-153.057v-40.506c-26.539-4.137-47.222-25.874-47.222-53.219v-193.188c0-30.242 24.909-54.863 55.584-54.863h296.254c30.618 0 55.526 24.621 55.526 54.863v193.188c0 27.342-20.671 49.075-47.165 53.219v40.506c0 84.385-70.172 153.057-156.487 153.057zM414.441 490.237c0 51.836 43.706 94.013 97.444 94.013s97.444-42.178 97.444-94.013v-38.833h-194.887v38.833zM656.494 207.446l-289.278-4.123-0.3 192.318 289.577 0.869v-189.065z"  horiz-adv-x="1024" />

    
    <glyph glyph-name="weiduxinxi" unicode="&#58931;" d="M890.256587 697.669956c-9.406616 4.568039-21.888393 7.721869-38.638555 7.721869L170.276942 705.391824c-16.749139 0-29.229893-3.154853-38.637532-7.721869-38.692793-15.714913-66.18197-54.079686-66.18197-98.996688l0-426.930509c0-44.617174 27.080861-82.818217 65.365338-98.724489 9.326795-4.675486 21.970261-7.995091 39.454164-7.995091l681.34109 0c17.484926 0 30.127369 3.318582 39.454164 7.995091 38.25787 15.906272 65.367385 54.107315 65.367385 98.724489L956.43958 598.674291C956.43958 643.59027 928.948356 681.955042 890.256587 697.669956zM904.015502 598.674291l0-426.930509c0-6.90527-1.38766-13.486152-3.752618-19.549242-3.371932 3.997034-7.206418 8.074909-11.936333 12.290931L670.393311 358.672148l225.03016 243.454778c2.745643 2.963495 4.920258 5.819542 7.095896 8.673543C903.445497 606.911906 904.015502 602.860636 904.015502 598.674291zM851.618031 652.019243c4.81383 0 9.381032-0.870834 13.813153-2.121314-1.277138-2.582825-3.669726-6.360871-8.156085-11.174504L545.751556 301.683203c-18.652566-20.174482-50.95455-20.174482-69.60814 0L164.62192 638.723426c-4.486358 4.813632-6.878946 8.591679-8.157108 11.174504 4.432121 1.251503 9.000347 2.121314 13.813153 2.121314L851.618031 652.019243zM121.633112 152.195563c-2.365981 6.063089-3.752618 12.642948-3.752618 19.549242L117.880494 598.674291c0 4.186346 0.571028 8.238638 1.468505 12.126178 2.201222-2.855024 4.350253-5.710049 7.123526-8.673543l225.029136-243.454778-217.932217-194.186677C128.838506 160.269449 125.005044 156.192597 121.633112 152.195563zM170.276942 118.39883c-2.556324 0-5.029756 0.379647-7.477605 0.760317 1.413244 1.52268 3.099721 3.235694 5.274336 5.194302l219.374115 195.436134 50.547257-54.677297c19.333093-20.909216 45.244267-32.43676 72.952441-32.43676 27.707151 0 53.619348 11.528568 72.952441 32.43676l50.548281 54.677297 219.346484-195.436134c2.201222-1.958608 3.8877-3.671623 5.301967-5.194302-2.473432-0.38067-4.920258-0.760317-7.478628-0.760317L170.276942 118.39883z"  horiz-adv-x="1024" />

    
    <glyph glyph-name="yidong" unicode="&#59263;" d="M1023.684923 371.751385c0.275692 7.443692-2.323692 14.926769-7.955692 20.558769l-132.923077 132.568615c-10.830769 10.791385-28.475077 10.791385-39.345231 0-10.830769-10.830769-10.830769-28.435692 0-39.227077l88.103385-87.906462-231.069538 0c-14.887385 0-26.939077-12.012308-26.939077-26.860308s12.051692-26.860308 26.939077-26.860308l234.889846 0-88.772923-88.536615c-10.555077-10.515692-10.555077-27.490462 0-38.045538 10.555077-10.515692 27.529846-10.515692 38.084923 0l128.787692 128.472615c3.387077 3.387077 5.277538 7.522462 6.498462 11.854769 2.284308 3.977846 3.938462 8.270769 3.938462 13.115077C1023.881846 371.239385 1023.724308 371.475692 1023.684923 371.751385zM323.505231 398.611692 88.615385 398.611692l88.772923 88.536615c10.555077 10.476308 10.555077 27.451077 0 38.006154s-27.529846 10.555077-38.084923 0l-128.787692-128.472615c-3.387077-3.387077-5.277538-7.522462-6.498462-11.854769-2.284308-3.938462-3.938462-8.231385-3.938462-13.075692 0-0.315077 0.157538-0.551385 0.196923-0.827077-0.275692-7.443692 2.323692-14.926769 7.955692-20.598154l132.923077-132.529231c10.830769-10.830769 28.475077-10.830769 39.345231 0 10.830769 10.830769 10.830769 28.396308 0 39.227077l-88.103385 87.906462 231.069538 0c14.887385 0 26.939077 12.012308 26.939077 26.860308S338.392615 398.611692 323.505231 398.611692zM536.497231 872.132923c-3.072 3.072-6.813538 5.001846-10.673231 6.262154-4.056615 2.402462-8.467692 4.135385-13.508923 4.135385-0.512 0-0.827077-0.236308-1.339077-0.315077-7.522462 0.393846-15.202462-2.087385-20.952615-7.837538L357.021538 741.415385c-10.791385-10.791385-10.791385-28.514462 0-39.305846 10.870154-10.870154 28.514462-10.870154 39.345231 0l88.969846 88.969846 0-231.936c0-14.926769 12.051692-26.939077 26.978462-26.939077 14.887385 0 26.978462 12.012308 26.978462 26.939077L539.293538 793.166769l87.906462-87.906462c10.515692-10.555077 27.529846-10.515692 38.084923 0.039385s10.555077 27.569231 0 38.124308L536.497231 872.132923zM627.2 62.779077l-88.772923-88.772923 0 234.850462c0 14.887385-12.091077 26.939077-26.978462 26.939077-14.926769 0-26.978462-12.051692-26.978462-26.939077l0-231.108923-88.103385 88.103385c-10.830769 10.870154-28.475077 10.870154-39.345231 0.039385-10.830769-10.830769-10.830769-28.514462 0-39.305846l132.923077-132.962462c5.710769-5.671385 13.193846-8.231385 20.598154-7.955692 0.315077 0 0.551385-0.196923 0.866462-0.196923 4.883692 0 9.176615 1.693538 13.154462 3.977846 4.332308 1.181538 8.507077 3.072 11.933538 6.498462l128.748308 128.748308c10.555077 10.555077 10.555077 27.569231 0 38.124308S637.676308 73.294769 627.2 62.779077z"  horiz-adv-x="1024" />

    
    <glyph glyph-name="yiduxinxi" unicode="&#58992;" d="M511.999488 837.81481 62.771151 557.058474c0-64.047712 0-50.284243 0-112.302739l0-393.059074c0-62.018495 50.286304-112.301715 112.30734-112.301715l673.843018 0c62.021037 0 112.306317 50.28322 112.306317 112.301715L961.227826 444.756759c0 62.018495 0 50.886971 0 112.302739L511.999488 837.81481zM118.925333 51.697685 118.925333 462.30339l254.52817-174.97922L121.585014 35.466002C120.022362 40.621419 118.925333 45.9948 118.925333 51.697685zM848.921509-4.453173 175.078491-4.453173c-4.305226 0-8.444669 0.576121-12.475637 1.479701l257.927732 257.944793 91.468902-62.896492 91.468902 62.896492 257.927732-257.944793C857.366178-3.878075 853.225711-4.453173 848.921509-4.453173zM905.074667 51.697685c0-5.702885-1.096006-11.076266-2.659682-16.23066L650.546498 287.32417l254.52817 174.97922L905.074667 51.697685zM511.999488 257.877511 118.925333 528.983045l392.526665 243.399519 393.62267-243.399519L511.999488 257.877511z"  horiz-adv-x="1024" />

    
    <glyph glyph-name="pass" unicode="&#58975;" d="M853.443-112.189h-682.865c-12.943 0-23.429 10.506-23.429 23.429v138.383c0 12.964 10.486 23.45 23.429 23.45 12.923 0 23.429-10.486 23.429-23.45v-114.934h636.006v114.934c0 12.964 10.486 23.45 23.45 23.45 12.923 0 23.45-10.486 23.45-23.45v-138.383c-0.041-12.923-10.547-23.429-23.47-23.429v0zM898.97 26.194h-773.939c-12.923 0-23.409 10.506-23.409 23.429v69.202c0 38.318 30.925 69.53 68.936 69.53 93.921 0 249.713 78.029 249.713 161.055v23.081c0 38.789-0.020 43.909-55.767 100.352-51.384 44.052-80.814 108.257-80.814 176.333 0 61.665 23.716 119.644 66.744 163.226 43.11 43.725 100.495 67.789 161.546 67.789 61.030 0 118.395-24.064 161.526-67.789 43.049-43.581 66.765-101.56 66.765-163.226 0-68.055-29.45-132.26-80.753-176.292-55.603-56.32-55.603-61.44-55.603-93.86 0-19.19-0.164-28.099-0.205-29.901 0.328-82.944 155.873-160.788 249.713-160.788 37.99 0 68.915-31.191 68.915-69.53v-69.202c0.020-12.902-10.465-23.409-23.368-23.409v0zM148.48 73.052h727.040v45.752c0 12.493-9.912 22.651-22.077 22.651-55.050 0-128.205 22.528-186.368 57.364-71.086 42.619-110.244 96.051-110.244 150.528 0 0.184 0.041 0.41 0.041 0.573 0 0.082 0.205 8.602 0.205 29.082 0 49.91 8.458 65.393 69.755 127.508 0.512 0.451 1.004 0.942 1.516 1.352 41.37 35.164 65.044 86.651 65.044 141.292 0 101.54-81.367 184.136-181.391 184.136-100.045 0-181.412-82.596-181.412-184.136 0-54.661 23.736-106.168 65.085-141.312 0.512-0.43 1.024-0.901 1.495-1.372 30.106-30.474 48.312-50.688 58.368-70.103 10.752-20.89 11.592-39.67 11.592-63.898v-23.081c0-54.477-39.137-107.93-110.244-150.569-58.163-34.836-131.277-57.364-186.307-57.364-12.186 0-22.098-10.158-22.098-22.651l-0-45.752z"  horiz-adv-x="1024" />

    
    <glyph glyph-name="peisongzhong" unicode="&#59140;" d="M85.994 285.035h351.036c15.029 0 23.994 12.041 23.994 23.994 0 15.029-12.041 23.994-23.994 23.994h-351.036c-11.953 2.989-23.994-9.053-23.994-21.006 0-15.029 12.041-26.982 23.994-26.982zM85.994 434.977h351.036c15.029 0 23.994 12.041 23.994 23.994 0 15.029-12.041 23.994-23.994 23.994h-351.036c-11.953 3.076-23.994-8.965-23.994-21.006 0-14.942 12.041-26.982 23.994-26.982zM136.971 585.006h351.036c15.029 0 23.994 12.041 23.994 23.994 0 15.029-12.041 23.994-23.994 23.994h-351.036c-14.942 2.989-23.994-8.965-23.994-21.006 0-15.029 9.053-26.982 23.994-26.982zM959.012 347.964l-198.018 279.053c-5.977 5.977-12.041 5.977-18.018 5.977h-104.942v102.041c0 15.029-12.041 23.994-23.994 23.994h-402.011c-15.029 0-23.994-12.041-23.994-23.994s8.964-23.994 23.994-23.994h375.029v-398.935c0-15.029 12.041-23.994 23.994-23.994h299.971v-174.023h-53.965c-12.041 57.041-63.018 98.964-122.959 98.964s-111.006-42.011-122.959-98.964h-204.17c-12.041 57.041-63.018 98.964-122.959 98.964s-111.006-42.011-122.959-98.964h-75.059c-15.029-0.088-23.994-12.129-23.994-24.082 0-15.029 12.041-23.994 23.994-23.994h77.959c12.041-57.041 63.018-98.965 122.959-98.965s111.006 42.012 122.959 98.965h203.994c12.041-57.041 63.018-98.965 122.959-98.965s111.006 42.012 122.959 98.965h77.959c15.029 0 23.994 12.041 23.994 23.994v248.994c0.263 2.989-2.724 5.977-2.724 8.965zM287 11.959c-42.012 0-74.971 32.959-74.971 74.971s32.959 74.971 74.971 74.971 74.971-32.959 74.971-74.971-32.959-74.971-74.971-74.971zM737 11.959c-42.012 0-74.971 32.959-74.971 74.971s32.959 74.971 74.971 74.971 74.971-32.959 74.971-74.971-32.959-74.971-74.971-74.971zM731.023 585.006l177.012-248.994h-270v248.994h92.989z"  horiz-adv-x="1024" />

    
    <glyph glyph-name="huizhiduobianxing" unicode="&#58926;" d="M915.41954 183.11465l0 299.37069c29.34944 9.8616 50.55746 37.61059 50.55746 70.23973 0 40.8555-33.23801 74.09453-74.09351 74.09453-32.62914 0-60.37813-21.20904-70.23973-50.55848l-619.28854 204.8c-9.8616 29.349435-37.6106 50.558475-70.23974 50.558475-40.855501 0-74.09351-33.238-74.09351-74.094525 0-32.62914 21.209044-60.37813 50.55747-70.23973l102.4-606.57069c-29.34842-9.8616-50.55747-37.61162-50.55747-70.23973 0-40.85653 33.23801-74.09451 74.09351-74.09451 32.62812 0 60.37814 21.20902 70.23872 50.55744l516.89058 102.4c9.8616-29.34946 37.61162-50.55747 70.23974-50.55747 40.8555 0 74.09351 33.23801 74.09351 74.09453-0.001 32.62811-21.20905 60.37915-50.55849 70.23974zm-93.77476-46.7037l-516.88956-102.4c-7.37395 21.94889-24.75378 39.32975-46.7037 46.70471l-102.4 606.56967c21.9489 7.37496 39.32873 24.7548 46.7037 46.70369l619.28956-204.8c7.37497-21.94889 24.7548-39.32873 46.7037-46.70369l0-299.37069c-21.94992-7.37497-39.32976-24.7548-46.7037-46.70369z"  horiz-adv-x="1024" />

    
    <glyph glyph-name="getAll" unicode="&#59314;" d="M560.188 636.988h-346.353c-18.071 0-30.118-12.047-30.118-30.118s12.047-30.118 30.118-30.118h346.353c18.071 0 30.118 12.047 30.118 30.118s-12.047 30.118-30.118 30.118zM560.188 471.341h-346.353c-18.071 0-30.118-12.047-30.118-30.118s12.047-30.118 30.118-30.118h346.353c18.071 0 30.118 12.047 30.118 30.118s-12.047 30.118-30.118 30.118zM439.718 305.694h-225.882c-18.071 0-30.118-12.047-30.118-30.118s12.047-30.118 30.118-30.118h225.882c18.071 0 30.118 12.047 30.118 30.118s-12.047 30.118-30.118 30.118zM430.682 91.859h-289.129c-18.071 0-30.118 12.047-30.118 30.118v632.471c0 18.071 12.047 30.118 30.118 30.118h512c18.071 0 30.118-12.047 30.118-30.118v-271.059c0-18.071 12.047-30.118 30.118-30.118s30.118 12.047 30.118 30.118v271.059c0 51.2-39.153 90.353-90.353 90.353h-512c-51.2 0-90.353-39.153-90.353-90.353v-632.471c0-51.2 39.153-90.353 90.353-90.353h289.129c18.071 0 30.118 12.047 30.118 30.118s-15.059 30.118-30.118 30.118zM734.871 399.059c-132.518 0-240.941-108.424-240.941-240.941s108.424-240.941 240.941-240.941 240.941 108.424 240.941 240.941-108.424 240.941-240.941 240.941zM734.871-22.588c-99.388 0-180.706 81.318-180.706 180.706s81.318 180.706 180.706 180.706 180.706-81.318 180.706-180.706-81.318-180.706-180.706-180.706zM873.412 191.247c-9.035 9.035-21.082 9.035-33.129 3.012l-84.329-72.282v129.506c0 12.047-9.035 24.094-24.094 24.094s-24.094-9.035-24.094-24.094v-129.506l-84.329 72.282c-9.035 9.035-24.094 6.024-33.129-3.012s-6.024-24.094 3.012-33.129l120.471-105.412c3.012-3.012 9.035-6.024 15.059-6.024s12.047 3.012 15.059 6.024l120.471 105.412c15.059 9.035 15.059 24.094 9.035 33.129z"  horiz-adv-x="1024" />

    
    <glyph glyph-name="biyan" unicode="&#58935;" d="M1097.895 400.305l-55.799 75.43c16.209 12.579 32.315 25.892 48.306 39.94 8.848 7.774 9.72 21.249 1.946 30.098-7.774 8.848-21.249 9.721-30.099 1.946-109.49-96.192-223.916-156.095-340.102-178.043-92.541-17.486-186.699-11.104-279.862 18.968-83.507 26.954-150.843 68.35-192.628 98.332-45.12 32.376-71.033 58.81-71.742 59.541-8.185 8.471-21.684 8.703-30.157 0.518-8.47-8.185-8.703-21.685-0.518-30.157 0.967-1.001 21.063-21.663 57.223-49.454l-50.216-64.85c-7.211-9.313-5.508-22.708 3.805-29.919 3.886-3.009 8.481-4.465 13.042-4.465 6.371 0 12.676 2.844 16.878 8.272l51.039 65.914c37.493-25.626 89.602-56.381 152.273-80.808l-33.837-73.038c-4.951-10.687-0.302-23.365 10.387-28.316 2.903-1.343 5.951-1.982 8.951-1.982 8.050 0 15.758 4.582 19.365 12.368l35.516 76.665c55.285-17.606 110.926-27.442 166.46-29.468v-81.202c0-11.779 9.548-21.326 21.326-21.326s21.325 9.548 21.325 21.326v81.177c29.485 1.049 58.91 4.309 88.192 9.786 31.368 5.867 62.572 14.294 93.557 25.244l37.425-77.749c3.673-7.631 11.292-12.082 19.23-12.082 3.101 0 6.254 0.68 9.235 2.115 10.612 5.109 15.075 17.854 9.967 28.467l-35.997 74.782c49.169 20.956 97.721 48.33 145.435 82.008l55.78-75.406c4.183-5.655 10.631-8.645 17.162-8.645 4.407 0 8.852 1.361 12.666 4.183 9.471 7.006 11.467 20.361 4.463 29.83z"  horiz-adv-x="1328" />

    
    <glyph glyph-name="balance" unicode="&#58983;" d="M384 320h-256c-35.307 0-64 28.693-64 64v0c0 35.307 28.693 64 64 64h256c35.307 0 64-28.693 64-64v0c0-35.307-28.693-64-64-64zM896 320h-256c-35.307 0-64 28.693-64 64v0c0 35.307 28.693 64 64 64h256c35.307 0 64-28.693 64-64v0c0-35.307-28.693-64-64-64z"  horiz-adv-x="1024" />

    
    <glyph glyph-name="dianpu1" unicode="&#58934;" d="M880.64 652.8h-739.84l-76.8-200.96c0-60.16 49.92-110.080 111.36-110.080s112.64 48.64 112.64 110.080c0-60.16 49.92-110.080 111.36-110.080s112.64 48.64 112.64 110.080c0-60.16 49.92-110.080 111.36-110.080s111.36 48.64 111.36 110.080c0-60.16 49.92-110.080 112.64-110.080 61.44 0 112.64 48.64 112.64 110.080l-79.36 200.96zM819.2 307.2v-256h-614.4v256c0 0-21.76 0-25.6 0-8.96 0-38.4 0-38.4 0v-268.8c0-23.040 25.6-51.2 48.64-51.2h643.84c23.040 0 48.64 28.16 48.64 51.2v268.8h-51.2c-2.56 0-11.52 0-11.52 0zM880.64 654.080v0 0zM192 704h640c21.76 0 38.4 16.64 38.4 38.4s-16.64 38.4-38.4 38.4h-640c-21.76 0-38.4-16.64-38.4-38.4s16.64-38.4 38.4-38.4z"  horiz-adv-x="1024" />

    
    <glyph glyph-name="baocun1" unicode="&#59145;" d="M819.8144-72.064 204.1856-72.064C119.8336-72.064 51.2-3.4816 51.2 80.896L51.2 687.0784c0 84.3776 68.6336 153.0112 152.9856 153.0112l615.6544 0C904.1664 840.064 972.8 771.456 972.8 687.0784L972.8 80.896C972.8-3.4816 904.192-72.064 819.8144-72.064L819.8144-72.064zM204.1856 780.3648c-51.456 0-93.312-41.8304-93.312-93.312L110.8736 80.896c0-51.456 41.856-93.3376 93.312-93.3376l615.6544 0c51.456 0 93.312 41.8816 93.312 93.3376L913.152 687.0784c0 51.4816-41.856 93.312-93.312 93.312L204.1856 780.3904 204.1856 780.3648zM807.04 382.5664 216.96 382.5664 216.96 840.064l590.1056 0L807.0656 382.5664 807.04 382.5664zM276.608 442.2656l470.784 0L747.392 780.3648l-470.784 0L276.608 442.2656 276.608 442.2656zM599.8592 692.5568l59.648 0 0-198.9376-59.648 0L599.8592 692.5568 599.8592 692.5568zM599.8592 692.5568"  horiz-adv-x="1024" />

    
    <glyph glyph-name="TMS" unicode="&#58914;" d="M1019.466 84.583h-90.832v64.972h25.862v206.092l-137.678 159.31h-176.006v183.154h-470.592v-79.461h-64.972v144.433h600.534v-183.155h140.727l172.955-200.112v-295.233zM395.090 599.615c0-18.062-15.529-32.681-34.695-32.681h-320.507c-19.167 0-34.695 14.619-34.695 32.681v0c0 18.061 15.528 32.68 34.695 32.68h320.441c19.168-0.064 34.761-14.683 34.761-32.68v0 0zM395.090 451.543c0-18.062-15.529-32.681-34.695-32.681h-320.507c-19.167 0-34.695 14.619-34.695 32.681v0c0 18.062 15.528 32.681 34.695 32.681h320.441c19.168-0.001 34.761-14.619 34.761-32.681v0 0zM460.061 302.303c0-18.061-18.127-32.679-40.478-32.679h-373.911c-22.35 0-40.478 14.617-40.478 32.679v0c0 18.062 18.128 32.682 40.478 32.682l373.846 0c22.417-0.001 40.542-14.62 40.542-32.682v0 0zM705.784 84.583h-227.141v64.972h162.17v397.888h64.971v-462.86zM819.938 1.939c-66.854 0-121.238 54.381-121.238 121.173 0 66.855 54.385 121.237 121.238 121.237 66.856 0 121.239-54.383 121.239-121.237-0.001-66.792-54.384-121.173-121.239-121.173v0zM819.938 183.861c-33.525 0-60.748-27.223-60.748-60.748 0-33.461 27.224-60.685 60.748-60.685 33.526 0 60.75 27.224 60.75 60.685-0.065 33.525-27.287 60.748-60.75 60.748v0zM369.101 1.939c-66.856 0-121.238 54.381-121.238 121.173 0 66.855 54.383 121.237 121.238 121.237 66.855 0 121.238-54.383 121.238-121.237-0.001-66.792-54.448-121.173-121.238-121.173v0zM369.101 183.861c-33.461 0-60.684-27.223-60.684-60.748 0-33.461 27.223-60.685 60.684-60.685 33.46 0 60.683 27.224 60.683 60.685-0.065 33.525-27.289 60.748-60.683 60.748v0zM86.668 155.598h167.041v-64.973h-167.041v64.973zM152.94 140.264c0-18.258-14.813-33.136-33.136-33.136v0c-18.257 0-33.136 14.812-33.136 33.136v40.283c0 18.257 14.813 33.136 33.136 33.136v0c18.257 0 33.136-14.815 33.136-33.136v-40.283zM755.292 404.115v-71.86h129.23l-57.695 71.86h-71.535z"  horiz-adv-x="1024" />

    
    </font>
</defs>
</svg>
